<?xml version="1.0" standalone="no"?>
<!DOCTYPE svg PUBLIC "-//W3C//DTD SVG 20010904//EN"
 "http://www.w3.org/TR/2001/REC-SVG-20010904/DTD/svg10.dtd">
<svg version="1.0" xmlns="http://www.w3.org/2000/svg"
 width="972.000000pt" height="972.000000pt" viewBox="0 0 972.000000 972.000000"
 preserveAspectRatio="xMidYMid meet">

<g transform="translate(0.000000,972.000000) scale(0.100000,-0.100000)"
fill="#000000" stroke="none">
<path d="M4550 8750 c-1024 -97 -1938 -555 -2598 -1305 -134 -152 -124 -134
-111 -192 l12 -50 75 91 c102 123 314 338 441 448 491 426 1113 732 1740 858
888 179 1822 36 2601 -397 947 -526 1627 -1412 1880 -2453 16 -68 30 -132 30
-142 0 -9 5 -20 10 -23 13 -8 8 57 -5 68 -6 5 -4 7 5 4 8 -2 14 -10 12 -16 -1
-7 2 -9 9 -5 8 4 22 -4 36 -22 32 -40 30 -26 -21 177 -181 718 -546 1349
-1078 1864 -627 609 -1401 974 -2298 1085 -114 14 -621 21 -740 10z"/>
<path d="M4605 8554 c-278 -28 -423 -51 -625 -100 -768 -188 -1460 -623 -1976
-1243 l-28 -33 88 7 c77 7 89 5 100 -10 8 -12 21 -16 35 -12 11 3 21 1 21 -5
0 -5 5 -6 10 -3 6 4 9 1 8 -5 -2 -7 8 -20 22 -31 21 -16 36 -17 103 -12 63 5
75 8 66 19 -15 18 -102 44 -148 44 l-36 1 60 55 c71 65 127 94 181 94 29 0 35
3 24 10 -8 5 -37 10 -65 10 -45 1 -48 2 -32 14 17 13 16 15 -10 20 -15 4 -44
2 -63 -3 -33 -9 -29 -4 50 71 588 559 1320 895 2135 979 176 18 549 15 730 -5
726 -84 1365 -358 1926 -828 560 -468 984 -1145 1157 -1843 46 -187 45 -175
25 -175 -16 -1 -16 -2 2 -12 43 -25 72 -83 91 -184 l6 -34 -53 25 c-30 14 -70
25 -89 25 l-35 -1 25 -13 c14 -8 29 -12 34 -9 5 4 6 1 2 -5 -4 -7 11 -24 37
-43 50 -35 47 -21 63 -271 5 -70 11 -98 21 -102 8 -3 12 -10 9 -15 -3 -5 2
-15 12 -22 15 -13 16 -12 3 3 -22 29 12 34 55 9 l37 -22 -6 48 -7 48 20 -26
c11 -15 40 -43 65 -63 l44 -37 -14 42 c-9 24 -39 68 -69 99 -68 71 -87 108
-77 146 7 27 8 28 19 9 14 -25 15 -15 2 19 -14 39 -6 32 30 -23 17 -27 38 -55
47 -63 9 -7 0 12 -20 42 -20 30 -38 64 -40 75 -2 11 -9 30 -15 43 -22 39 -4
24 21 -18 l24 -40 -3 37 c-1 21 -2 44 -3 51 -1 7 -6 10 -13 6 -7 -4 -8 -3 -4
4 4 7 4 28 0 48 -7 40 -24 29 -24 -18 0 -15 -5 -30 -12 -34 -6 -4 -8 -3 -5 2
23 38 -61 437 -149 707 -389 1191 -1366 2116 -2569 2432 -333 88 -540 115
-905 120 -151 1 -293 1 -315 -1z m-2375 -1304 c0 -5 -2 -10 -4 -10 -3 0 -8 5
-11 10 -3 6 -1 10 4 10 6 0 11 -4 11 -10z m6196 -1694 c10 -8 17 -17 14 -19
-3 -3 -16 3 -29 14 -27 22 -15 26 15 5z"/>
<path d="M1722 7703 c-6 -10 -13 -34 -17 -53 -7 -30 -9 -32 -15 -15 -7 18 -9
18 -19 -8 -6 -16 -11 -40 -11 -55 1 -44 37 -111 70 -130 16 -9 30 -23 30 -30
0 -7 11 -24 25 -38 21 -21 28 -23 46 -14 14 8 19 18 16 31 -3 12 1 20 14 24
37 12 59 54 59 112 0 30 5 63 11 74 9 19 9 19 -9 10 -21 -11 -72 -107 -72
-135 0 -35 -21 -22 -54 33 -48 79 -68 138 -61 179 7 35 1 42 -13 15z"/>
<path d="M1758 7213 c-32 -42 -58 -73 -58 -69 0 13 -56 -23 -95 -62 -80 -78
-106 -114 -103 -141 2 -17 -2 -25 -10 -23 -6 1 -13 -4 -13 -10 -11 -106 -25
-161 -52 -207 l-25 -43 24 -36 c13 -19 24 -40 24 -46 1 -6 16 18 35 54 19 36
34 61 35 56 0 -10 60 80 60 90 0 3 38 44 85 92 79 81 85 90 85 129 0 23 3 50
6 60 3 10 -6 -2 -20 -27 -14 -25 -26 -56 -26 -70 -1 -15 -4 -19 -7 -11 -4 10
-14 -1 -29 -30 -28 -54 -30 -44 -6 43 24 84 99 218 123 218 41 0 49 10 43 54
-4 22 -9 44 -13 48 -3 4 -32 -27 -63 -69z m-83 -101 c-53 -42 -60 -46 -33 -19
16 15 31 27 35 27 4 0 3 -3 -2 -8z m-144 -205 c-10 -9 -11 -8 -5 6 3 10 9 15
12 12 3 -3 0 -11 -7 -18z"/>
<path d="M2099 7151 c-24 -25 -38 -51 -26 -51 2 0 18 18 36 40 37 47 32 53
-10 11z"/>
<path d="M1271 7119 c-12 -19 -21 -40 -21 -48 0 -10 -3 -11 -14 -2 -39 32 -55
-110 -19 -171 11 -19 29 -34 42 -36 19 -3 21 -8 16 -31 -11 -52 59 -83 72 -31
3 11 10 20 15 20 5 0 7 4 4 9 -4 5 2 7 13 4 25 -6 57 36 65 88 4 22 13 54 22
71 15 28 14 29 -4 19 -27 -14 -69 -65 -94 -114 l-20 -41 -30 70 c-34 80 -46
160 -28 193 19 37 3 36 -19 0z"/>
<path d="M1990 7131 c-8 -6 -18 -7 -24 -4 -5 3 -6 1 -3 -4 7 -11 -20 -26 -32
-18 -4 2 -8 -2 -8 -10 0 -12 4 -12 26 0 29 15 69 44 61 45 -3 0 -12 -4 -20 -9z"/>
<path d="M2060 7025 c-16 -19 -103 -51 -165 -60 -48 -7 -135 -46 -155 -70 -8
-9 2 -11 40 -9 35 3 50 0 50 -8 0 -8 4 -7 10 3 5 9 26 20 47 24 20 3 55 19 77
35 48 33 124 99 115 100 -4 0 -12 -7 -19 -15z"/>
<path d="M1970 6898 c-19 -16 -34 -33 -33 -38 2 -5 -14 -21 -35 -36 l-37 -26
30 6 c29 6 29 6 10 -9 -11 -9 -46 -25 -78 -37 -31 -11 -56 -22 -54 -24 2 -2
28 4 58 15 30 10 63 22 74 26 16 6 15 3 -5 -14 -14 -12 -18 -19 -9 -16 24 9
73 73 98 129 13 26 21 49 19 51 -2 2 -19 -10 -38 -27z"/>
<path d="M1905 6850 c-3 -6 1 -7 9 -4 18 7 21 14 7 14 -6 0 -13 -4 -16 -10z"/>
<path d="M1053 6784 c22 -43 79 -92 172 -147 44 -26 91 -55 104 -65 l23 -19
-26 -51 c-19 -38 -24 -57 -17 -74 4 -13 12 -45 16 -72 l7 -50 36 83 c26 62 37
79 42 66 12 -34 20 2 11 49 -16 84 -53 118 -195 177 -52 22 -97 50 -134 83
-49 45 -53 47 -39 20z"/>
<path d="M1740 6640 l-35 -7 37 -2 c20 0 40 4 43 9 7 11 7 11 -45 0z"/>
<path d="M1527 6463 c-63 -130 -73 -144 -113 -168 -24 -14 -44 -28 -44 -31 0
-3 16 4 36 16 42 27 51 22 31 -17 -8 -15 -18 -38 -21 -51 l-7 -22 36 24 c20
14 57 33 83 42 65 25 78 44 40 61 -21 9 -19 11 20 17 23 4 42 12 42 18 0 5 8
7 19 3 15 -5 18 -1 13 20 -3 19 -8 23 -15 16 -20 -20 -28 -11 -11 14 30 45 9
52 -31 10 -32 -35 -36 -37 -30 -15 4 14 14 38 22 53 30 59 -8 31 -59 -43 -25
-36 -21 -12 5 35 13 23 37 47 57 57 19 9 41 22 48 28 6 6 12 7 12 1 0 -23 43
5 61 41 l20 39 -72 -3 -72 -3 -70 -142z m-16 -106 c-10 -9 -11 -8 -5 6 3 10 9
15 12 12 3 -3 0 -11 -7 -18z"/>
<path d="M920 6390 c0 -5 5 -10 11 -10 5 0 7 5 4 10 -3 6 -8 10 -11 10 -2 0
-4 -4 -4 -10z"/>
<path d="M1785 6290 c-3 -5 -1 -10 4 -10 6 0 11 5 11 10 0 6 -2 10 -4 10 -3 0
-8 -4 -11 -10z"/>
<path d="M1810 6271 c0 -6 4 -13 10 -16 6 -3 7 1 4 9 -7 18 -14 21 -14 7z"/>
<path d="M1493 6225 c-81 -41 -93 -53 -118 -120 -30 -84 -84 -184 -104 -195
-25 -13 -77 -13 -101 0 -16 9 -14 2 10 -37 15 -27 45 -95 66 -153 33 -93 35
-108 24 -135 -6 -16 -16 -49 -22 -72 -22 -97 -186 -296 -311 -378 -59 -39
-127 -55 -182 -41 -23 6 -25 9 -14 23 17 20 171 123 225 151 27 14 58 43 87
85 25 35 80 96 121 135 42 38 76 75 76 80 0 29 -67 135 -118 186 -70 70 -78
75 -135 80 l-45 4 24 -23 c34 -34 32 -59 -3 -51 -36 9 -78 39 -78 57 0 7 11
17 25 21 20 6 19 7 -7 3 -25 -3 -33 -1 -33 11 0 18 -22 14 -90 -19 l-46 -22
-23 28 c-28 34 -40 28 -17 -8 24 -36 14 -60 -16 -44 -20 11 -21 10 -10 -3 11
-13 9 -16 -13 -20 -14 -3 -25 -1 -25 4 0 6 -6 8 -14 5 -8 -3 -16 -1 -19 6 -2
6 -22 12 -44 12 -23 0 -40 2 -37 6 4 7 -105 19 -169 19 -24 0 -40 -5 -43 -15
-4 -8 -10 -15 -16 -15 -5 0 -6 5 -2 12 9 14 -97 5 -142 -12 -28 -11 -28 -12
-9 -26 33 -24 87 -34 142 -25 34 5 50 4 46 -2 -4 -6 8 -7 32 -3 23 5 35 4 31
-2 -4 -6 3 -8 15 -5 12 3 24 1 28 -5 11 -18 95 -18 120 0 21 15 21 17 4 21
-10 3 -1 5 19 6 29 1 36 -2 32 -14 -4 -8 -9 -15 -13 -15 -3 0 -24 -16 -46 -36
-22 -20 -31 -30 -20 -23 18 13 19 13 6 -3 -7 -10 -17 -16 -21 -13 -4 2 -18 -7
-30 -20 -13 -14 -29 -25 -37 -25 -15 0 -18 -16 -4 -25 6 -3 7 -35 4 -74 -3
-38 -1 -82 4 -98 8 -22 7 -36 -3 -54 -18 -32 -17 -62 3 -107 21 -47 43 -106
40 -108 -16 -12 -51 -24 -69 -24 -33 0 -74 24 -70 41 3 11 1 11 -9 2 -18 -18
15 -51 95 -93 54 -29 66 -40 70 -66 7 -35 39 -68 76 -79 l25 -7 -22 21 c-82
78 93 161 210 99 33 -18 58 -23 117 -22 110 1 139 14 211 95 33 38 72 72 85
75 26 7 54 -10 54 -32 0 -33 -213 -164 -268 -164 -12 0 -48 -9 -79 -20 -32
-11 -68 -20 -80 -20 -15 0 -27 -8 -32 -22 -13 -33 -3 -41 26 -22 14 9 53 20
87 24 34 5 75 12 92 15 30 7 32 5 39 -24 5 -25 2 -39 -18 -64 -13 -18 -30 -50
-37 -72 -7 -22 -23 -62 -36 -89 -29 -61 -30 -72 -4 -46 12 12 18 26 14 32 -4
6 -3 8 3 5 12 -8 38 49 49 109 6 31 8 35 14 19 7 -18 9 -16 15 10 11 49 13 52
15 20 1 -16 5 -39 10 -50 7 -16 9 -12 10 20 2 39 3 39 10 10 4 -16 8 -47 9
-68 1 -44 16 -42 25 5 3 17 13 39 22 49 11 12 13 22 6 36 -5 10 -19 37 -31 59
-11 23 -21 52 -21 64 0 21 4 22 40 17 l40 -5 -23 18 c-28 23 -16 47 35 72 55
26 96 80 103 135 4 26 20 68 35 93 16 25 36 72 46 105 9 34 28 70 43 85 25 24
30 25 119 20 l92 -5 0 29 c0 28 -1 28 -18 13 -19 -17 -85 -23 -117 -11 -38 15
-56 94 -35 150 8 20 8 29 -1 35 -6 4 -9 12 -5 17 4 6 -10 46 -30 88 -35 74
-36 78 -21 108 l16 31 -6 -33 -6 -33 36 24 c42 28 132 41 192 27 22 -5 54 -12
70 -16 41 -8 85 -27 85 -36 0 -5 11 -8 25 -8 14 0 25 -4 25 -9 0 -5 9 -11 19
-14 29 -7 15 19 -22 42 -38 23 -136 53 -148 45 -5 -3 -9 0 -9 5 0 7 -22 11
-53 11 -29 0 -58 5 -64 11 -15 15 -77 4 -98 -17 -13 -14 -15 -14 -15 0 0 15
49 155 89 254 11 28 19 52 17 52 -2 0 -35 -16 -73 -35z m-165 -379 c50 -46 59
-71 66 -183 8 -131 -12 -193 -86 -265 -27 -26 -56 -64 -65 -85 -8 -21 -51 -75
-94 -121 -43 -46 -79 -88 -79 -93 0 -5 -4 -9 -10 -9 -5 0 -10 7 -10 15 0 8 -9
15 -19 15 -16 0 -9 10 27 44 48 46 70 54 36 13 -10 -13 -2 -5 19 17 21 23 40
52 44 66 8 35 32 81 54 105 10 11 25 46 33 78 8 32 25 72 38 90 39 54 32 126
-19 226 -47 88 -53 117 -25 123 29 7 56 -4 90 -36z m-293 -66 c17 -33 30 -100
19 -100 -5 0 -20 10 -34 21 l-25 21 28 -16 c15 -9 27 -13 27 -8 0 19 -24 79
-44 107 -16 25 -17 27 -2 16 9 -8 23 -26 31 -41z m-110 -20 c13 -6 3 -7 -27
-3 -52 6 -57 3 -31 -18 11 -9 14 -10 9 -2 -5 9 -2 11 9 6 9 -3 13 -9 8 -12 -5
-3 -9 -21 -9 -40 1 -33 -1 -35 -51 -49 -33 -9 -53 -20 -53 -29 0 -12 14 -14
74 -11 41 2 72 0 69 -5 -5 -8 47 13 62 25 13 11 43 10 50 -2 3 -5 2 -26 -4
-45 -10 -38 -10 -38 13 -29 12 5 16 22 18 68 l2 61 3 -52 c2 -29 6 -53 8 -53
3 0 19 9 37 20 34 20 108 28 108 10 0 -5 -30 -19 -67 -30 -37 -11 -79 -31 -93
-44 -14 -13 -43 -33 -65 -44 -53 -28 -27 -28 36 -1 55 24 72 18 72 -25 0 -16
-22 -49 -64 -96 -69 -78 -84 -88 -176 -115 -51 -15 -65 -16 -78 -5 -19 16 -19
49 1 78 23 33 0 27 -29 -8 -14 -16 -29 -30 -33 -30 -4 0 -4 3 -1 7 6 5 -75 44
-123 59 -9 3 -21 14 -28 24 -10 17 -10 18 16 4 15 -8 46 -14 70 -14 l44 0 -30
54 c-73 135 -22 295 110 343 39 14 114 15 143 3z m65 -36 c0 -2 -9 0 -20 6
-11 6 -20 13 -20 16 0 2 9 0 20 -6 11 -6 20 -13 20 -16z m-340 -24 c-6 -11
-13 -20 -16 -20 -2 0 0 9 6 20 6 11 13 20 16 20 2 0 0 -9 -6 -20z m293 -34
c20 -37 22 -46 10 -50 -8 -3 -11 -1 -8 4 4 6 -5 31 -19 55 -14 25 -21 43 -16
40 5 -3 20 -25 33 -49z m-327 -48 l-11 -53 -3 38 c-3 30 10 67 22 67 2 0 -2
-24 -8 -52z m-56 -23 c0 -8 -9 -37 -20 -65 -24 -62 -25 -101 -4 -157 29 -74
-10 -73 -46 1 -18 39 -21 57 -17 123 7 92 8 103 17 98 3 -2 12 0 20 6 23 14
50 11 50 -6z m50 -69 c0 -2 -8 -10 -17 -17 -16 -13 -17 -12 -4 4 13 16 21 21
21 13z m-40 -55 c-5 -11 -10 -31 -10 -45 0 -14 -4 -26 -9 -26 -9 0 1 58 13 79
12 19 17 12 6 -8z m-44 -251 c16 -17 55 -40 94 -55 73 -28 91 -48 60 -65 -16
-8 -31 -6 -65 9 -49 21 -135 102 -135 126 0 23 17 18 46 -15z"/>
<path d="M776 5715 c-47 -44 -56 -97 -32 -189 8 -32 16 -45 21 -37 4 7 35 31
69 53 33 22 52 37 41 33 -11 -4 -43 -10 -71 -12 -56 -6 -81 10 -51 32 11 8 17
27 17 55 0 31 6 50 22 67 29 31 18 30 -16 -2z"/>
<path d="M665 5459 c5 -13 19 -41 32 -62 23 -37 26 -38 66 -32 24 4 53 17 67
31 l25 25 -28 -10 c-46 -18 -77 -13 -107 17 -15 15 -35 33 -45 41 -16 13 -17
12 -10 -10z"/>
<path d="M859 5393 c-13 -16 -12 -17 4 -4 16 13 21 21 13 21 -2 0 -10 -8 -17
-17z"/>
<path d="M819 5363 c-13 -16 -12 -17 4 -4 16 13 21 21 13 21 -2 0 -10 -8 -17
-17z"/>
<path d="M3335 6236 c-78 -21 -101 -32 -144 -72 -40 -35 -61 -82 -61 -134 0
-21 3 -19 19 16 80 176 377 208 734 79 l69 -25 38 27 c21 16 41 36 43 46 3 9
22 24 44 33 35 15 42 15 81 1 35 -14 42 -14 42 -2 0 23 -39 38 -86 31 -40 -5
-66 -16 -144 -64 -43 -27 -59 -27 -135 -1 -201 68 -394 93 -500 65z"/>
<path d="M841 6224 c0 -11 3 -14 6 -6 3 7 2 16 -1 19 -3 4 -6 -2 -5 -13z"/>
<path d="M975 6220 c-3 -6 1 -7 9 -4 18 7 21 14 7 14 -6 0 -13 -4 -16 -10z"/>
<path d="M1085 6200 c3 -5 8 -10 11 -10 2 0 4 5 4 10 0 6 -5 10 -11 10 -5 0
-7 -4 -4 -10z"/>
<path d="M1183 6203 c9 -2 23 -2 30 0 6 3 -1 5 -18 5 -16 0 -22 -2 -12 -5z"/>
<path d="M870 6180 c0 -6 -6 -10 -12 -9 -7 1 -26 1 -43 -1 -21 -1 -25 -4 -14
-8 9 -4 15 -14 14 -22 -1 -8 2 -28 6 -45 6 -28 7 -27 8 11 1 41 16 51 48 31 6
-4 14 -3 18 3 3 5 -1 10 -9 10 -19 0 -21 17 -4 22 9 3 9 6 0 12 -7 4 -12 2
-12 -4z"/>
<path d="M730 6169 c0 -5 5 -7 10 -4 6 3 10 8 10 11 0 2 -4 4 -10 4 -5 0 -10
-5 -10 -11z"/>
<path d="M3350 6164 c-106 -29 -167 -79 -188 -156 -22 -79 32 -177 97 -178 23
0 21 3 -17 38 -48 45 -54 78 -23 129 71 115 314 144 634 76 l78 -16 -100 -94
c-54 -51 -135 -135 -178 -186 -43 -50 -165 -194 -271 -318 l-192 -227 -76 43
c-155 89 -271 81 -304 -19 -13 -42 3 -88 45 -126 23 -22 36 -25 98 -25 66 0
79 4 152 43 l81 44 94 -52 c117 -64 282 -139 375 -171 57 -19 90 -24 175 -24
94 0 111 3 165 28 33 15 68 36 78 45 32 28 57 89 57 134 -1 40 -2 42 -15 24
-8 -11 -15 -28 -15 -38 0 -32 -58 -86 -113 -105 -87 -30 -229 -23 -352 17
-109 35 -395 147 -408 159 -4 4 43 50 104 101 154 131 250 235 416 451 78 101
161 206 185 232 l43 48 72 -12 c91 -15 135 -7 167 32 31 37 33 62 6 89 -40 40
-126 20 -229 -53 l-34 -24 -106 34 c-224 72 -379 90 -501 57z m838 -26 c21
-21 14 -66 -13 -84 -20 -13 -39 -15 -86 -10 -91 9 -98 16 -45 54 70 51 120 64
144 40z m-1113 -876 c79 -38 93 -54 62 -75 -67 -44 -175 -59 -228 -32 -52 27
-59 97 -12 124 35 20 115 13 178 -17z"/>
<path d="M4110 6110 c-13 -9 -13 -10 0 -10 8 0 22 5 30 10 13 9 13 10 0 10 -8
0 -22 -5 -30 -10z"/>
<path d="M3010 5218 c-19 -5 -54 -8 -77 -5 -44 5 -52 0 -31 -21 18 -18 77 -14
126 8 64 29 54 39 -18 18z"/>
<path d="M856 6122 c-3 -5 1 -9 9 -9 8 0 12 4 9 9 -3 4 -7 8 -9 8 -2 0 -6 -4
-9 -8z"/>
<path d="M1265 6079 c-4 -6 -5 -12 -2 -15 2 -3 7 2 10 11 7 17 1 20 -8 4z"/>
<path d="M980 6059 c0 -5 5 -7 10 -4 6 3 10 8 10 11 0 2 -4 4 -10 4 -5 0 -10
-5 -10 -11z"/>
<path d="M1061 6019 c-25 -32 -22 -51 4 -29 13 11 14 10 10 -2 -4 -9 1 -18 11
-22 13 -5 15 -2 8 11 -4 10 -7 30 -6 46 1 15 0 27 -1 26 -1 0 -13 -14 -26 -30z"/>
<path d="M3738 5968 c-46 -46 -178 -195 -292 -331 -249 -296 -268 -317 -292
-317 -11 0 -55 18 -100 41 -68 35 -90 41 -141 41 -40 0 -69 -6 -86 -17 -26
-17 -47 -61 -47 -99 0 -18 3 -16 20 11 21 36 57 57 112 67 44 8 132 -19 216
-66 l55 -32 35 40 c19 21 108 127 199 234 233 276 336 391 399 444 59 52 66
66 31 66 -16 0 -51 -27 -109 -82z"/>
<path d="M4314 6040 c-31 -12 -90 -105 -199 -315 -191 -368 -242 -454 -276
-462 -9 -3 -20 -11 -23 -18 -3 -10 2 -10 27 -3 69 23 61 10 238 349 173 332
197 368 267 413 24 15 40 31 37 36 -7 12 -42 12 -71 0z"/>
<path d="M4333 5965 c-31 -22 -90 -120 -209 -347 -194 -372 -226 -421 -279
-434 -76 -19 -72 31 15 235 39 89 68 167 64 172 -3 5 -27 9 -53 9 -46 0 -47
-1 -44 -27 3 -18 -14 -73 -43 -148 -38 -93 -48 -133 -49 -177 0 -72 18 -93 80
-93 39 0 50 5 89 44 25 25 62 75 81 113 20 37 38 68 40 68 2 0 -11 -33 -30
-72 -36 -80 -56 -144 -47 -152 3 -3 25 -6 50 -6 36 0 43 3 38 16 -8 21 18 144
39 185 22 42 100 124 151 160 47 32 84 44 113 34 53 -16 -6 -105 -84 -126 -22
-6 -46 -13 -52 -15 -24 -6 -53 -68 -53 -112 0 -128 106 -189 214 -123 48 30
118 138 170 263 39 93 46 103 71 106 41 5 73 -6 80 -27 4 -13 -10 -49 -39
-103 -75 -138 -80 -205 -22 -244 37 -24 73 -11 128 46 l47 49 7 -35 c7 -39 45
-74 81 -74 35 0 75 24 112 65 37 42 115 194 105 204 -4 3 -8 1 -11 -5 -2 -5
-24 -46 -48 -90 -55 -97 -105 -147 -143 -142 -49 6 -42 54 32 231 37 86 66
163 66 172 0 11 -11 15 -49 15 -44 0 -49 -2 -44 -20 6 -23 -26 -115 -70 -204
-69 -140 -139 -215 -167 -181 -19 23 -4 79 61 215 32 69 59 136 59 149 0 23
-1 23 -85 16 -47 -4 -85 -3 -85 2 1 4 14 24 30 43 37 43 41 101 9 124 -30 21
-47 10 -59 -38 -73 -292 -200 -526 -286 -526 -50 0 -94 63 -94 133 0 60 9 74
53 86 65 16 133 64 157 110 26 53 25 77 -5 97 -55 36 -188 -31 -283 -142 -23
-27 -42 -44 -42 -38 0 20 113 234 181 342 35 57 86 128 112 158 l49 54 -44 0
c-24 0 -53 -7 -65 -15z"/>
<path d="M800 5941 c-13 -26 4 -71 27 -71 9 0 35 12 56 27 l39 27 -38 17 c-52
23 -71 23 -84 0z"/>
<path d="M3865 5807 c-8 -13 -13 -31 -9 -40 5 -14 8 -14 27 3 11 11 32 20 45
20 38 0 25 34 -15 38 -25 2 -35 -2 -48 -21z"/>
<path d="M4940 5811 c-12 -23 -13 -51 -2 -51 4 0 16 7 26 15 11 8 31 15 44 15
18 0 23 4 18 16 -3 9 -6 18 -6 20 0 2 -16 4 -35 4 -24 0 -37 -6 -45 -19z"/>
<path d="M1910 5810 c-11 -7 -5 -10 23 -10 23 0 36 4 32 10 -8 13 -35 13 -55
0z"/>
<path d="M4581 5798 c-6 -13 -21 -66 -35 -119 -32 -118 -72 -217 -126 -309
-48 -79 -84 -110 -129 -110 -20 0 -31 -5 -31 -14 0 -47 77 -12 131 59 52 70
154 287 174 371 16 69 37 104 62 104 23 0 10 35 -15 38 -15 2 -25 -4 -31 -20z"/>
<path d="M3908 5759 c-32 -18 -41 -48 -23 -75 26 -41 79 -26 98 27 7 21 -19
59 -41 59 -9 0 -25 -5 -34 -11z"/>
<path d="M4976 5749 c-29 -23 -33 -50 -10 -73 21 -22 50 -20 74 4 26 26 26 66
1 80 -27 14 -35 13 -65 -11z"/>
<path d="M4275 5666 c-17 -7 -39 -26 -49 -41 -18 -27 -18 -28 0 -20 25 10 88
24 142 32 32 4 42 10 40 22 -4 21 -91 26 -133 7z"/>
<path d="M3807 5663 c-4 -3 -7 -13 -7 -22 0 -13 9 -15 46 -13 44 4 45 5 28 23
-17 19 -54 25 -67 12z"/>
<path d="M4880 5650 c0 -17 7 -20 40 -20 22 0 40 4 40 8 0 17 -25 32 -52 32
-21 0 -28 -5 -28 -20z"/>
<path d="M4686 5625 l-16 -25 39 0 c26 0 41 5 45 16 15 40 -42 48 -68 9z"/>
<path d="M6095 5613 c-191 -26 -344 -147 -345 -273 l0 -35 24 50 c41 90 133
156 278 204 82 27 117 29 186 9 35 -10 52 -12 49 -4 -9 30 -122 59 -192 49z"/>
<path d="M1861 5596 c12 -11 250 -126 245 -118 -6 10 -227 122 -241 122 -4 0
-6 -2 -4 -4z"/>
<path d="M3751 5481 c-25 -64 -41 -120 -39 -137 2 -23 14 -1 52 99 31 80 45
132 40 137 -6 6 -26 -31 -53 -99z"/>
<path d="M4844 5524 c-16 -38 -50 -106 -76 -151 -27 -46 -48 -85 -48 -88 0 -3
8 -5 19 -5 20 0 58 64 116 199 23 55 32 88 27 98 -7 11 -16 -3 -38 -53z"/>
<path d="M4271 5507 c-52 -26 -151 -122 -150 -146 0 -13 2 -12 12 4 24 40 93
98 145 121 28 12 52 28 52 33 0 16 -9 14 -59 -12z"/>
<path d="M4599 5445 c-17 -35 -33 -86 -35 -112 l-4 -48 14 37 c8 21 31 66 50
101 39 70 43 87 22 87 -8 0 -29 -29 -47 -65z"/>
<path d="M8710 5505 c0 -5 5 -17 10 -25 5 -8 10 -10 10 -5 0 6 -5 17 -10 25
-5 8 -10 11 -10 5z"/>
<path d="M8902 5476 c-7 -15 -21 -40 -32 -54 -13 -15 -20 -40 -20 -66 0 -28
-8 -54 -25 -79 -14 -20 -23 -42 -19 -48 11 -19 19 -110 19 -230 l0 -116 30 8
c16 5 31 9 32 9 11 0 72 64 67 72 -3 5 2 16 12 24 11 9 13 13 4 9 -8 -4 -6 1
4 9 11 9 17 16 13 16 -4 0 -3 10 4 21 6 12 7 19 2 16 -5 -4 -10 0 -10 8 0 8 4
12 8 10 4 -3 10 2 13 11 9 24 7 36 -6 28 -7 -5 -8 -3 -2 7 5 8 7 41 5 75 -3
60 -2 61 32 82 37 21 60 51 72 89 5 18 3 22 -9 17 -14 -6 -14 -3 0 31 8 20 13
42 11 48 -3 7 -9 1 -15 -13 -5 -14 -20 -35 -33 -47 -24 -22 -150 -85 -156 -79
-2 2 1 24 7 48 6 24 10 62 8 84 l-4 39 -12 -29z m-26 -226 c11 0 10 -11 -7
-52 -24 -61 -43 -95 -35 -63 18 78 18 85 -1 78 -17 -6 -17 -5 0 14 9 11 17 26
18 34 0 10 2 10 6 2 2 -7 11 -13 19 -13z"/>
<path d="M6180 5465 l0 -26 30 23 c17 12 30 23 30 25 0 2 -13 3 -30 3 -25 0
-30 -4 -30 -25z"/>
<path d="M5003 5364 c-17 -30 -27 -52 -22 -49 11 8 63 95 58 99 -2 2 -18 -21
-36 -50z"/>
<path d="M8791 5294 c0 -11 3 -14 6 -6 3 7 2 16 -1 19 -3 4 -6 -2 -5 -13z"/>
<path d="M4087 5237 c-21 -24 -27 -40 -25 -67 3 -31 0 -35 -22 -38 -14 -2 -39
-10 -57 -18 -53 -24 -143 -37 -216 -30 -75 7 -197 44 -368 111 -73 29 -117 41
-123 35 -5 -5 -8 -11 -5 -13 10 -9 212 -88 324 -127 207 -73 382 -66 454 15
17 20 31 44 31 54 0 10 12 35 26 56 32 48 18 65 -19 22z"/>
<path d="M1620 5250 c0 -5 5 -10 10 -10 6 0 10 5 10 10 0 6 -4 10 -10 10 -5 0
-10 -4 -10 -10z"/>
<path d="M4895 5249 c-11 -17 1 -21 15 -4 8 9 8 15 2 15 -6 0 -14 -5 -17 -11z"/>
<path d="M5670 5181 c-93 -32 -136 -59 -188 -115 -53 -58 -72 -96 -78 -159
l-5 -52 14 36 c21 55 54 104 95 141 40 36 193 131 230 142 22 7 29 21 15 29
-5 2 -42 -8 -83 -22z"/>
<path d="M5870 5187 c0 -22 4 -23 60 -23 41 1 60 5 60 14 0 16 -42 32 -86 32
-29 0 -34 -3 -34 -23z"/>
<path d="M6337 5147 c-10 -26 -128 -76 -207 -88 -41 -6 -98 -15 -125 -21 -36
-7 -62 -7 -90 1 -135 37 -295 -31 -295 -126 l0 -36 23 34 c13 21 45 45 82 64
57 29 66 30 240 36 193 7 253 18 330 63 49 29 68 55 56 75 -7 10 -9 9 -14 -2z"/>
<path d="M1388 5073 c-64 -67 -118 -113 -116 -100 2 7 -6 11 -20 9 -13 -2 -29
2 -37 8 -11 9 -12 7 -8 -8 3 -15 17 -21 51 -26 57 -7 108 -37 124 -71 13 -30
1 -47 -51 -75 -20 -11 -29 -19 -20 -20 22 0 135 76 144 98 13 28 22 112 13
112 -4 0 -8 8 -9 18 0 9 -8 34 -17 55 l-17 38 -37 -38z"/>
<path d="M1550 4889 c0 -5 5 -7 10 -4 6 3 10 8 10 11 0 2 -4 4 -10 4 -5 0 -10
-5 -10 -11z"/>
<path d="M8360 4875 c13 -14 26 -25 28 -25 3 0 -5 11 -18 25 -13 14 -26 25
-28 25 -3 0 5 -11 18 -25z"/>
<path d="M8713 4721 c-1 -88 -4 -183 -7 -213 -6 -45 -5 -50 6 -33 7 11 20 72
30 135 13 84 16 96 12 45 -2 -38 -8 -87 -11 -109 -5 -30 -3 -38 8 -34 18 6 27
78 28 226 1 66 -3 112 -9 112 -5 0 -7 7 -4 15 5 11 -1 15 -23 15 l-29 0 -1
-159z m54 47 c-2 -13 -4 -5 -4 17 -1 22 1 32 4 23 2 -10 2 -28 0 -40z"/>
<path d="M6029 4809 c-19 -46 -101 -124 -158 -150 -28 -12 -49 -24 -48 -26 8
-8 107 29 150 57 47 30 86 89 87 133 0 27 -16 20 -31 -14z"/>
<path d="M8505 4802 c8 -23 12 -54 9 -70 -5 -24 2 -36 59 -93 73 -73 96 -106
107 -152 8 -31 8 -30 9 12 1 24 -2 41 -6 38 -3 -4 -16 8 -28 25 -18 26 -21 39
-14 63 12 41 11 135 -1 135 -5 0 -10 -10 -10 -22 -1 -13 -7 -36 -15 -53 l-13
-30 -2 45 c-1 25 -8 61 -15 80 l-13 35 -1 -60 -1 -60 -25 59 c-30 74 -62 112
-40 48z"/>
<path d="M8940 4815 c0 -16 -7 -41 -15 -55 -21 -36 -17 -119 4 -105 4 2 7 -13
7 -33 -1 -33 2 -37 26 -40 23 -3 30 2 38 23 9 22 13 25 25 15 36 -30 134 64
135 129 0 20 -2 22 -15 11 -14 -11 -14 -10 -5 14 13 35 13 66 0 66 -5 0 -10
-10 -10 -23 0 -26 -63 -91 -128 -131 l-43 -27 7 64 c5 49 3 70 -9 93 l-16 29
-1 -30z"/>
<path d="M4395 4815 c-157 -34 -269 -124 -289 -232 -7 -42 5 -42 23 -1 45 101
232 204 408 224 61 6 189 -19 258 -51 28 -14 28 -13 -8 19 -21 19 -58 39 -82
45 -59 15 -235 13 -310 -4z"/>
<path d="M8090 4792 c0 -5 -14 -6 -31 -4 -21 3 -30 1 -25 -6 3 -6 1 -14 -5
-18 -8 -4 -9 -3 -5 4 10 16 -9 15 -67 -3 -81 -25 -88 -31 -45 -49 37 -16 84
-12 143 10 13 5 16 4 11 -4 -4 -7 -2 -12 3 -12 6 0 11 5 11 10 0 6 7 10 15 10
9 0 15 9 15 21 0 18 4 20 27 14 23 -5 25 -4 13 10 -11 13 -10 15 3 10 8 -4 18
-2 22 4 4 7 -10 11 -39 11 -25 0 -46 -4 -46 -8z"/>
<path d="M8230 4790 c0 -3 9 -11 20 -18 17 -10 20 -10 20 6 0 11 -7 18 -20 18
-11 0 -20 -3 -20 -6z"/>
<path d="M4494 4760 c-265 -37 -422 -197 -344 -350 28 -56 94 -100 245 -165
72 -31 151 -70 176 -87 117 -79 138 -203 57 -331 -133 -209 -486 -306 -753
-206 -68 25 -137 86 -166 146 -61 125 1 353 124 458 46 39 44 55 -3 30 -122
-63 -229 -247 -217 -376 18 -205 201 -328 490 -329 226 0 417 76 563 225 71
72 106 138 112 211 10 126 -44 183 -284 300 -232 112 -272 149 -261 240 11
105 153 189 337 201 102 6 157 -7 205 -48 46 -41 61 -86 42 -131 -14 -32 -27
-42 -90 -62 -10 -3 -16 -10 -12 -15 9 -15 89 17 119 48 32 34 45 77 35 115
-12 42 -65 93 -117 110 -57 20 -179 27 -258 16z"/>
<path d="M1175 4730 c3 -5 11 -10 16 -10 6 0 7 5 4 10 -3 6 -11 10 -16 10 -6
0 -7 -4 -4 -10z"/>
<path d="M1260 4736 c0 -2 7 -6 15 -10 8 -3 15 -1 15 4 0 6 -7 10 -15 10 -8 0
-15 -2 -15 -4z"/>
<path d="M8693 4635 c0 -44 2 -61 4 -37 2 23 2 59 0 80 -2 20 -4 1 -4 -43z"/>
<path d="M1071 4679 c-2 -24 -27 -44 -34 -27 -4 9 -6 7 -6 -4 -1 -9 -6 -20
-12 -24 -8 -4 -9 1 -5 17 4 13 -7 -2 -23 -34 -16 -32 -26 -67 -24 -78 6 -22
10 -23 49 -9 26 9 30 16 31 51 1 23 9 52 18 66 9 13 14 32 12 41 -4 15 -5 15
-6 1z m-31 -100 c0 -6 -4 -7 -10 -4 -5 3 -10 11 -10 16 0 6 5 7 10 4 6 -3 10
-11 10 -16z"/>
<path d="M1405 4680 c-3 -5 -1 -10 4 -10 6 0 11 5 11 10 0 6 -2 10 -4 10 -3 0
-8 -4 -11 -10z"/>
<path d="M5617 4643 c3 -7 8 -13 13 -13 4 0 17 -9 30 -20 27 -24 63 -26 80 -5
10 12 9 15 -6 15 -11 1 -42 9 -70 18 -39 14 -51 15 -47 5z"/>
<path d="M8502 4570 l-31 -50 50 26 c40 20 50 29 47 47 -6 40 -33 30 -66 -23z"/>
<path d="M4772 4589 c-12 -19 -11 -19 8 -9 11 6 20 15 20 20 0 17 -15 11 -28
-11z"/>
<path d="M4725 4560 c-16 -7 -17 -9 -3 -9 9 -1 20 4 23 9 7 11 7 11 -20 0z"/>
<path d="M8517 4495 c-21 -25 -33 -46 -27 -50 16 -10 12 -45 -6 -52 -12 -5 -9
-12 17 -39 18 -19 30 -36 27 -40 -4 -3 -16 8 -29 25 -13 17 -28 31 -34 31 -14
0 -58 -59 -58 -76 0 -7 -4 -11 -8 -9 -3 3 -13 -2 -20 -11 -17 -20 -74 -50 -64
-33 6 9 2 10 -16 5 -13 -5 -43 -13 -65 -19 l-42 -11 39 -53 c51 -68 49 -77 -3
-27 -24 22 -52 47 -62 55 -18 13 -19 13 -8 -8 7 -12 -20 10 -59 49 -38 39 -73
68 -76 64 -3 -3 1 -14 9 -23 9 -10 27 -41 41 -69 24 -47 30 -52 99 -78 40 -16
115 -51 167 -78 73 -38 96 -46 102 -36 6 9 9 8 9 -7 1 -13 20 -33 54 -56 l53
-36 10 31 c6 17 11 52 12 78 2 50 -16 134 -26 124 -4 -4 -13 8 -20 25 -11 26
-10 52 8 175 11 79 19 155 17 168 -3 23 -5 22 -41 -19z"/>
<path d="M5608 4503 c-41 -72 -85 -156 -196 -378 -66 -132 -139 -264 -161
-294 -39 -52 -52 -91 -32 -91 25 0 85 101 232 392 159 311 200 377 243 379 16
1 13 3 -9 9 -51 13 -60 11 -77 -17z"/>
<path d="M1487 4481 c-3 -11 -21 -30 -41 -42 -20 -11 -36 -22 -36 -24 0 -1 20
1 45 6 45 8 115 0 168 -20 l27 -11 -16 26 c-17 25 -80 66 -120 78 -16 5 -23 2
-27 -13z"/>
<path d="M8333 4475 c1 -13 6 -28 11 -32 4 -4 6 -1 4 7 -1 8 3 14 10 13 6 -2
12 2 12 8 0 6 -7 8 -16 5 -12 -4 -15 -2 -10 9 3 8 1 15 -5 15 -5 0 -8 -11 -6
-25z"/>
<path d="M5667 4470 c-15 -12 -84 -137 -178 -322 -183 -364 -236 -448 -285
-448 -47 0 8 190 87 301 17 24 17 28 3 33 -54 21 -88 -7 -149 -122 -68 -130
-158 -222 -202 -205 -24 9 -26 53 -6 112 48 139 197 301 278 301 9 0 28 -12
42 -26 17 -17 29 -22 35 -16 16 16 -34 60 -78 68 -92 17 -200 -43 -273 -152
-81 -120 -101 -246 -49 -301 43 -46 110 -20 178 71 24 31 45 56 47 56 3 0 2
-15 -1 -33 -18 -97 62 -151 135 -90 28 24 31 25 21 6 -17 -31 -16 -33 23 -33
30 0 39 5 53 31 89 163 199 292 270 313 33 11 29 -22 -13 -91 -36 -59 -65
-139 -65 -179 0 -40 40 -76 84 -76 45 0 78 21 124 81 l32 43 0 -37 c0 -25 8
-43 26 -62 22 -22 32 -25 67 -20 34 5 51 15 89 57 47 50 136 213 159 290 11
37 15 40 49 40 22 0 48 -8 61 -19 l24 -19 -52 -99 c-61 -115 -72 -166 -49
-211 37 -72 126 -42 199 68 l17 24 0 -32 c0 -18 7 -46 15 -62 31 -60 93 -51
162 23 26 29 55 63 64 77 16 24 16 23 12 -30 -4 -46 -1 -60 17 -82 52 -67 129
-18 217 137 46 82 56 105 44 105 -5 0 -30 -38 -56 -84 -135 -241 -217 -182
-92 67 l54 107 -24 6 c-43 11 -69 -11 -123 -108 -98 -172 -165 -241 -212 -216
-71 36 66 293 201 380 56 35 85 35 117 1 13 -14 27 -23 30 -20 12 11 -5 37
-38 58 -59 37 -165 12 -248 -58 -40 -33 -104 -130 -121 -181 -15 -47 -91 -163
-118 -179 -47 -29 -65 16 -37 94 7 21 37 87 65 146 72 152 73 149 -46 141
l-98 -7 28 23 c56 45 73 114 37 150 -33 33 -53 13 -74 -77 -40 -171 -129 -364
-202 -441 -34 -35 -48 -43 -71 -40 -50 6 -44 51 36 238 38 90 68 168 65 172
-3 4 -27 8 -53 8 -46 0 -47 -1 -44 -27 8 -55 -106 -290 -177 -364 -46 -49 -74
-49 -78 -1 -5 46 18 108 93 255 74 144 71 151 -34 98 -76 -39 -145 -91 -204
-154 l-49 -52 88 170 c88 172 177 331 220 395 22 32 23 35 7 42 -31 12 -49 9
-76 -12z"/>
<path d="M8773 4473 c-58 -32 -74 -65 -102 -209 -15 -74 -23 -134 -19 -134 5
0 8 1 8 3 0 14 52 262 55 266 10 9 4 -37 -18 -150 l-23 -117 22 2 c19 1 24 9
29 44 4 24 4 46 1 49 -2 3 0 11 7 18 9 10 14 9 25 -4 11 -14 12 -13 7 9 -6 23
-5 23 8 8 15 -20 37 -24 37 -8 0 6 9 10 19 10 30 0 33 15 6 40 -18 17 -32 21
-59 18 -29 -3 -36 0 -40 18 -7 28 3 82 18 92 6 4 90 9 186 12 116 4 183 10
198 19 34 18 24 20 -35 8 -43 -9 -70 -8 -141 6 -112 21 -149 21 -189 0z"/>
<path d="M4295 4430 c20 -21 82 -58 184 -106 84 -41 166 -84 183 -95 16 -12
31 -19 34 -16 11 11 -104 82 -233 144 -76 36 -151 75 -168 86 l-30 20 30 -33z"/>
<path d="M1180 4444 c0 -6 5 -15 12 -22 9 -9 6 -17 -12 -37 -23 -24 -23 -25
-5 -45 17 -19 17 -21 -27 -65 -25 -25 -41 -45 -35 -45 6 0 25 14 43 31 35 34
99 49 130 30 16 -8 11 -10 -28 -11 -35 0 -54 -6 -75 -24 l-27 -24 59 -12 c148
-30 286 -136 353 -271 38 -80 40 -90 7 -59 -13 12 -32 45 -40 71 -16 48 -65
109 -88 109 -8 0 -13 -23 -14 -66 -1 -35 -7 -82 -14 -102 -20 -60 -83 -145
-143 -191 -31 -24 -74 -64 -95 -90 -27 -31 -38 -39 -35 -24 3 12 45 59 92 105
l86 83 -113 7 c-140 9 -170 19 -215 69 -42 45 -45 77 -13 107 43 41 154 56
193 27 10 -8 27 -15 37 -15 23 0 34 -29 16 -41 -8 -5 -24 -9 -37 -9 -12 0 -21
-3 -21 -7 1 -5 1 -17 0 -28 -2 -14 -6 -10 -15 15 -6 19 -17 34 -24 32 -7 -1
-12 5 -12 14 0 18 -25 15 -87 -11 -41 -17 -41 -26 -3 -59 40 -33 93 -40 230
-27 63 6 118 11 121 11 4 0 14 18 23 41 18 44 12 63 -25 74 -25 8 -24 32 4 87
l23 46 -40 26 c-58 38 -128 57 -226 62 -79 5 -89 3 -135 -23 -66 -37 -78 -65
-86 -198 -7 -133 -2 -150 76 -225 35 -34 70 -81 92 -125 40 -80 37 -78 -40 25
-30 41 -69 88 -86 104 -28 27 -31 28 -31 9 0 -31 37 -130 60 -164 35 -49 70
-60 188 -62 100 -1 115 2 226 38 l118 40 49 80 c27 43 49 76 49 72 0 -4 -23
-52 -50 -107 -28 -55 -47 -100 -43 -100 10 -1 -39 -29 -50 -30 -4 0 -3 8 2 18
9 17 -2 15 -97 -14 -98 -29 -117 -32 -232 -30 -118 1 -128 3 -179 31 -77 43
-106 90 -106 174 1 43 7 77 18 98 13 25 17 57 17 145 l0 112 -20 -20 c-18 -17
-19 -24 -9 -53 16 -46 6 -136 -24 -201 l-24 -55 -13 45 c-7 25 -10 67 -7 95 6
45 5 48 -8 31 -8 -11 -15 -32 -15 -47 0 -47 -17 -41 -41 14 -16 37 -23 71 -24
119 0 77 -4 76 -59 -16 -37 -62 -82 -183 -72 -193 3 -4 6 1 6 9 0 16 27 44 35
36 2 -2 6 -38 9 -79 2 -40 11 -101 20 -134 8 -33 16 -80 18 -105 3 -40 0 -45
-19 -48 -44 -6 -83 125 -77 258 l3 55 -10 -40 c-16 -60 -5 -184 20 -234 26
-51 88 -121 107 -121 7 0 21 -11 30 -25 9 -14 28 -31 42 -38 19 -9 29 -27 42
-75 10 -34 20 -65 23 -68 3 -3 -8 -35 -24 -71 -40 -88 -35 -106 16 -52 22 24
31 37 20 29 -20 -14 -20 -14 -1 7 16 20 20 20 33 7 10 -9 25 -13 42 -9 23 5
29 0 54 -45 16 -27 31 -50 34 -50 3 0 26 16 50 36 27 22 57 37 73 38 18 1 25
5 19 11 -33 33 18 33 113 -1 94 -33 151 -66 212 -123 33 -31 47 -40 43 -26
-65 211 -77 268 -58 279 4 3 13 -6 20 -20 7 -15 18 -24 29 -22 44 7 202 -117
202 -159 0 -7 5 -13 10 -13 15 0 12 16 -5 30 -8 7 -15 19 -15 28 0 28 63 124
122 188 63 67 101 82 128 49 7 -8 24 -15 39 -15 24 1 24 2 -11 21 -22 11 -38
27 -38 37 0 10 -5 23 -12 30 -17 17 16 39 70 48 41 6 58 4 94 -11 14 -6 16 -1
11 34 -3 23 0 61 7 85 11 40 16 45 56 56 25 7 50 22 56 33 17 32 53 61 107 86
63 30 76 52 23 40 -50 -11 -112 -11 -112 0 0 6 21 16 48 24 l47 15 -47 -5
c-40 -5 -48 -3 -48 11 0 9 10 21 23 26 l22 9 -22 0 c-30 1 -30 27 0 35 13 3
52 24 87 47 72 46 95 64 68 54 -29 -11 -21 0 20 28 20 15 52 39 70 55 25 22
28 28 13 27 -10 0 -40 -20 -67 -44 -48 -42 -167 -125 -196 -136 -13 -5 -15 12
-14 127 1 132 1 133 -24 144 -14 6 -38 15 -54 18 -26 6 -28 5 -23 -16 3 -13 7
-103 9 -202 3 -178 2 -178 -21 -198 -14 -10 -36 -18 -49 -16 -20 2 -29 13 -42
54 -10 28 -47 94 -83 146 -78 115 -90 149 -85 238 4 75 28 115 72 122 17 3 10
10 -34 35 l-54 32 -32 -19 c-51 -32 -74 -23 -74 30 0 20 -22 32 -45 25 -50
-16 -50 -14 -14 -46 19 -17 27 -26 18 -20 -8 6 -44 18 -80 26 -35 9 -86 23
-112 32 -40 12 -53 13 -78 2 -32 -12 -99 -92 -99 -115 0 -8 -7 -14 -15 -14
-13 0 -12 6 4 39 11 21 33 53 48 72 23 28 25 32 8 25 -67 -26 -165 -27 -165
-1 0 6 -9 20 -20 30 -11 10 -20 14 -20 9z m253 -186 c-2 -5 0 -8 6 -8 5 0 30
-15 55 -34 38 -30 46 -33 57 -20 6 8 29 14 49 14 76 0 102 -68 104 -270 l1
-135 -40 -83 c-25 -53 -52 -94 -74 -113 -19 -15 -37 -27 -39 -25 -2 2 13 30
34 61 57 89 82 154 89 230 8 83 -8 192 -36 246 -16 32 -25 39 -49 39 -33 0
-36 -9 -16 -48 21 -41 46 -119 61 -194 12 -56 12 -74 2 -99 -11 -29 -12 -28
-13 33 -2 99 -21 169 -73 259 -53 93 -75 113 -152 140 l-54 19 47 -3 c25 -1
44 -5 41 -9z m382 -273 c0 -132 -4 -196 -12 -210 -10 -16 -11 -7 -7 55 6 66
-10 362 -21 415 -3 11 5 0 18 -25 20 -42 22 -58 22 -235z m133 -298 l-3 -109
-65 -61 c-102 -97 -349 -259 -440 -290 -63 -21 -186 -40 -214 -33 -27 7 -76
43 -76 57 0 15 34 10 60 -8 32 -22 120 -21 190 2 60 20 320 191 402 264 102
92 142 213 103 309 l-16 37 31 -30 32 -30 -4 -108z m-243 -71 c18 -13 18 -16
5 -42 -21 -38 -152 -147 -224 -185 -32 -17 -122 -54 -200 -80 -146 -51 -223
-61 -282 -39 -35 14 -174 149 -174 170 0 38 38 50 87 26 33 -17 196 -36 300
-36 109 0 197 33 338 123 65 43 121 77 125 77 3 0 15 -6 25 -14z"/>
<path d="M8672 4410 c0 -14 2 -19 5 -12 2 6 2 18 0 25 -3 6 -5 1 -5 -13z"/>
<path d="M767 4359 c7 -7 15 -10 18 -7 3 3 -2 9 -12 12 -14 6 -15 5 -6 -5z"/>
<path d="M8207 4364 c-3 -3 -41 -6 -84 -6 -70 1 -76 -1 -58 -13 21 -15 28 -20
58 -44 15 -12 21 -11 42 9 13 13 22 27 18 33 -3 6 -1 7 4 4 6 -4 16 0 23 8 12
14 10 21 -3 9z"/>
<path d="M680 4349 c0 -5 5 -7 10 -4 6 3 10 8 10 11 0 2 -4 4 -10 4 -5 0 -10
-5 -10 -11z"/>
<path d="M5916 4334 c-16 -16 -22 -54 -8 -54 4 0 16 7 26 15 11 8 31 15 44 15
18 0 23 4 18 16 -3 9 -6 18 -6 20 0 11 -61 2 -74 -12z"/>
<path d="M667 4323 c4 -9 2 -14 -3 -11 -5 3 -17 -5 -27 -18 -12 -17 -14 -24
-5 -22 7 2 12 -3 10 -10 -1 -8 2 -11 8 -7 8 5 7 11 -1 21 -14 17 2 19 20 2 11
-10 13 -10 7 0 -4 6 -2 12 3 12 6 0 11 7 11 15 0 9 6 12 15 9 8 -4 15 -4 15
-1 0 3 -13 10 -29 15 -26 9 -29 8 -24 -5z"/>
<path d="M718 4333 c7 -3 16 -2 19 1 4 3 -2 6 -13 5 -11 0 -14 -3 -6 -6z"/>
<path d="M6142 4323 c-5 -10 -15 -43 -22 -73 -22 -97 -70 -222 -122 -320 -27
-51 -43 -88 -34 -81 28 23 143 273 159 344 15 69 38 107 64 107 18 0 16 27 -3
34 -25 9 -33 7 -42 -11z"/>
<path d="M615 4320 c-3 -6 1 -7 9 -4 18 7 21 14 7 14 -6 0 -13 -4 -16 -10z"/>
<path d="M3752 4290 c-77 -55 -151 -181 -159 -269 l-4 -46 25 59 c31 73 79
143 152 224 60 67 53 81 -14 32z"/>
<path d="M728 4293 c7 -3 16 -2 19 1 4 3 -2 6 -13 5 -11 0 -14 -3 -6 -6z"/>
<path d="M5945 4265 c-28 -27 -30 -37 -15 -66 14 -25 61 -25 83 -1 23 25 22
69 -2 82 -29 15 -39 13 -66 -15z"/>
<path d="M7638 4243 c6 -2 18 -2 25 0 6 3 1 5 -13 5 -14 0 -19 -2 -12 -5z"/>
<path d="M7810 4215 c68 -13 126 -22 129 -19 2 2 2 4 0 4 -2 0 -50 9 -107 20
-56 11 -113 20 -125 19 -12 0 34 -11 103 -24z"/>
<path d="M1030 4220 c-11 -7 -5 -8 20 -4 43 8 51 14 19 14 -13 0 -31 -5 -39
-10z"/>
<path d="M5089 4207 c-54 -15 -93 -42 -144 -98 -46 -51 -95 -154 -101 -212
l-5 -42 21 49 c27 63 80 142 122 183 34 33 166 103 193 103 9 0 30 -7 46 -16
17 -8 33 -13 36 -11 6 7 -38 47 -53 47 -6 0 -24 2 -40 5 -16 2 -50 -1 -75 -8z"/>
<path d="M6600 4207 c-97 -27 -162 -89 -219 -207 -40 -82 -53 -106 -80 -152
-21 -34 -21 -39 -6 -44 20 -8 37 14 66 86 30 76 102 182 143 214 19 14 65 40
102 57 67 31 69 32 111 16 46 -17 58 -7 21 17 -34 22 -88 27 -138 13z"/>
<path d="M8010 4191 c0 -5 15 -14 33 -20 l32 -11 -25 20 c-27 21 -40 25 -40
11z"/>
<path d="M5857 4183 c-4 -3 -7 -13 -7 -22 0 -13 9 -15 46 -13 44 4 45 5 28 23
-17 19 -54 25 -67 12z"/>
<path d="M5643 4145 c-60 -30 -93 -62 -93 -90 0 -20 121 40 168 84 21 19 22
41 3 41 -5 0 -40 -16 -78 -35z"/>
<path d="M6250 4148 l-21 -23 37 -3 c40 -4 60 13 42 35 -15 19 -35 16 -58 -9z"/>
<path d="M485 4100 c3 -5 8 -10 11 -10 2 0 4 5 4 10 0 6 -5 10 -11 10 -5 0 -7
-4 -4 -10z"/>
<path d="M5801 4016 c-23 -52 -58 -117 -77 -146 -39 -59 -41 -70 -16 -70 22 0
81 99 122 206 44 116 23 123 -29 10z"/>
<path d="M2605 4071 c-11 -9 -31 -29 -45 -45 -21 -24 -22 -26 -5 -20 18 6 17
4 -4 -19 -13 -14 -41 -38 -63 -53 -39 -28 -46 -44 -9 -25 16 9 19 9 15 -3 -3
-7 -20 -22 -39 -32 -19 -10 -33 -20 -31 -22 2 -2 19 4 36 13 l32 17 -15 -23
c-9 -12 -29 -30 -44 -40 -25 -17 -25 -19 -8 -19 12 0 39 18 60 40 21 22 36 40
32 40 -9 0 17 43 50 83 13 16 23 37 23 46 0 10 10 30 21 45 25 32 22 41 -6 17z"/>
<path d="M5162 4059 c-9 -17 -43 -73 -74 -124 -61 -98 -67 -115 -44 -115 17 0
40 31 91 125 46 84 72 115 98 115 16 0 17 3 7 15 -22 26 -59 18 -78 -16z"/>
<path d="M6649 4030 c-18 -33 -53 -90 -76 -126 -48 -72 -51 -84 -25 -84 13 0
34 27 68 86 57 99 100 154 121 154 27 0 7 25 -23 28 -27 3 -33 -3 -65 -58z"/>
<path d="M8627 4060 c-24 -61 -53 -180 -44 -177 14 4 59 155 54 177 -3 13 -5
13 -10 0z"/>
<path d="M6161 3970 c-20 -36 -34 -80 -37 -112 l-5 -53 14 36 c7 20 30 66 50
102 40 71 44 87 23 87 -7 0 -28 -27 -45 -60z"/>
<path d="M8633 3966 l-10 -44 29 10 c30 11 35 32 14 61 -19 24 -21 22 -33 -27z"/>
<path d="M4637 3975 c-23 -82 -119 -187 -224 -242 -101 -54 -201 -77 -338 -77
-99 -1 -132 3 -190 23 -38 12 -82 32 -97 42 -21 16 -26 17 -22 5 10 -27 94
-75 152 -87 94 -19 320 -6 417 25 88 28 182 80 233 129 47 45 84 126 80 173
l-3 39 -8 -30z"/>
<path d="M5568 3953 c-32 -34 -48 -73 -48 -116 1 -31 1 -31 19 13 9 25 29 64
44 88 31 48 23 55 -15 15z"/>
<path d="M7773 3957 c7 -11 27 -31 44 -44 l30 -24 16 24 c14 22 14 23 -44 44
l-60 20 14 -20z"/>
<path d="M8985 3930 c-4 -6 -11 -7 -17 -4 -7 4 -8 2 -4 -4 4 -7 2 -12 -5 -12
-7 0 -4 -7 7 -16 10 -8 12 -12 4 -8 -12 5 -12 4 -3 -6 9 -10 16 -9 34 4 20 14
21 16 5 16 -13 0 -17 5 -13 20 6 22 2 26 -8 10z"/>
<path d="M8382 3871 c-6 -19 -12 -60 -12 -93 0 -54 -2 -59 -26 -68 -20 -8 -24
-14 -19 -33 4 -12 15 -30 25 -40 17 -18 18 -18 28 13 l11 31 31 -23 c26 -19
32 -20 40 -8 12 19 5 42 -25 87 -21 31 -28 54 -38 143 -2 23 -3 23 -15 -9z"/>
<path d="M9165 3870 c-3 -5 -1 -10 4 -10 6 0 11 5 11 10 0 6 -2 10 -4 10 -3 0
-8 -4 -11 -10z"/>
<path d="M8318 3858 c6 -6 18 -8 28 -6 14 3 12 5 -9 10 -19 3 -25 2 -19 -4z"/>
<path d="M8565 3848 c-42 -136 -55 -188 -46 -188 9 0 45 112 55 168 5 31 -1
45 -9 20z"/>
<path d="M6720 3789 c0 -5 5 -7 10 -4 6 3 10 8 10 11 0 2 -4 4 -10 4 -5 0 -10
-5 -10 -11z"/>
<path d="M4950 3774 c0 -17 22 -14 28 4 2 7 -3 12 -12 12 -9 0 -16 -7 -16 -16z"/>
<path d="M6455 3779 c-12 -19 5 -23 22 -6 16 16 16 17 1 17 -9 0 -20 -5 -23
-11z"/>
<path d="M5865 3769 c-11 -17 0 -20 21 -4 17 13 17 14 2 15 -9 0 -20 -5 -23
-11z"/>
<path d="M8571 3744 c-15 -53 -14 -54 13 -54 34 0 45 46 17 73 -19 20 -19 20
-30 -19z"/>
<path d="M8636 3705 c-4 -10 1 -15 16 -15 17 0 18 2 8 15 -7 8 -14 15 -15 15
-2 0 -5 -7 -9 -15z"/>
<path d="M8773 3694 c-17 -7 -37 -22 -43 -31 -11 -17 -11 -17 -6 0 5 14 1 18
-16 15 -11 -2 -26 -11 -32 -21 -18 -28 9 -37 94 -29 41 3 98 6 127 7 28 0 47
3 41 6 -6 4 -5 9 3 12 8 3 5 6 -8 6 -12 1 -29 9 -38 18 -14 13 -21 14 -36 5
-21 -13 -26 -3 -7 16 22 22 -5 12 -41 -15 l-36 -28 18 28 c9 15 16 27 15 26
-2 0 -17 -7 -35 -15z"/>
<path d="M8210 3686 c0 -2 8 -10 18 -17 15 -13 16 -12 3 4 -13 16 -21 21 -21
13z"/>
<path d="M8563 3673 c9 -2 23 -2 30 0 6 3 -1 5 -18 5 -16 0 -22 -2 -12 -5z"/>
<path d="M8622 3668 c7 -19 38 -22 38 -4 0 10 -9 16 -21 16 -12 0 -19 -5 -17
-12z"/>
<path d="M7778 3623 c-73 -56 -124 -119 -137 -171 -5 -20 -19 -98 -32 -172
-12 -74 -26 -141 -32 -147 -28 -36 -83 1 -109 73 -14 41 -25 43 -38 8 -14 -36
-12 -75 4 -122 15 -41 15 -42 -20 -83 -22 -26 -34 -51 -34 -70 0 -26 7 -33 57
-57 46 -22 59 -33 65 -57 41 -180 59 -215 108 -215 16 0 51 14 77 30 48 30 77
37 88 21 3 -5 -4 -12 -15 -16 -12 -4 -32 -24 -45 -45 -27 -42 -52 -60 -85 -60
-37 0 -113 52 -175 120 -32 36 -81 86 -108 112 -27 27 -47 54 -44 60 3 7 13
31 22 53 l16 40 -25 -30 c-34 -40 -42 -79 -22 -107 9 -12 16 -33 16 -45 0 -12
9 -46 20 -75 30 -83 41 -146 32 -181 l-9 -32 141 -1 c185 -1 227 -17 412 -154
25 -19 46 -28 57 -24 13 5 3 16 -42 49 -64 47 -85 73 -126 155 -15 30 -36 64
-46 76 -16 17 -18 26 -10 47 14 37 40 47 116 47 60 0 66 -2 60 -17 -23 -56 -5
-76 199 -230 52 -40 153 -68 210 -59 85 14 124 56 209 221 26 50 59 106 75
124 l28 34 45 -30 c25 -17 51 -38 58 -47 22 -26 8 -108 -32 -189 -20 -39 -34
-73 -33 -74 2 -2 41 20 87 48 82 49 139 95 139 111 0 5 -12 13 -27 19 -35 13
-107 61 -112 74 -2 6 -26 31 -54 57 -40 37 -48 51 -39 60 7 7 12 26 11 43 l-1
30 -11 -27 c-6 -16 -14 -28 -18 -28 -3 0 -38 -27 -77 -59 -83 -69 -180 -129
-272 -167 -89 -37 -198 -39 -287 -5 -103 39 -82 80 72 142 88 35 249 118 242
125 -1 1 -31 -4 -67 -13 -41 -9 -86 -13 -122 -9 -38 4 -71 1 -99 -9 -23 -8
-58 -15 -78 -15 -53 0 -135 45 -178 96 -24 30 -41 43 -52 39 -15 -6 -136 49
-156 70 -5 6 -27 23 -47 39 -54 39 -49 50 21 43 42 -3 80 -16 127 -41 55 -29
63 -31 45 -12 -24 26 -27 54 -8 80 18 24 50 14 77 -25 12 -16 42 -43 68 -60
62 -42 93 -70 87 -80 -5 -6 -80 8 -130 25 -12 5 -10 1 5 -8 43 -25 145 -46
216 -45 63 1 66 2 31 10 -86 20 -227 114 -290 194 -20 25 -36 35 -56 35 -28 0
-31 3 -46 55 -2 6 -6 17 -10 26 -4 11 5 29 26 53 26 30 30 42 25 67 -9 45 7
65 70 88 l55 21 46 -20 c25 -11 49 -20 54 -20 4 0 18 18 30 40 39 69 112 65
183 -8 19 -21 46 -45 60 -55 32 -22 33 -34 4 -40 -21 -4 -20 -4 3 -6 17 -1 29
5 33 17 3 9 8 22 11 28 3 7 -5 14 -19 18 -14 3 -39 26 -57 52 -39 58 -82 84
-137 84 -68 0 -314 -49 -333 -66 -10 -9 -21 -33 -24 -55 -9 -53 -25 -59 -25
-10 0 90 61 191 155 259 17 12 27 22 23 22 -4 0 -35 -21 -70 -47z"/>
<path d="M8282 3622 c24 -26 43 -62 53 -99 9 -32 27 -83 39 -113 48 -112 40
-185 -17 -159 l-26 12 20 28 c12 17 19 40 17 56 -3 25 -7 28 -43 29 -32 1 -34
1 -7 -3 17 -2 32 -8 32 -13 0 -4 -21 -27 -47 -50 -66 -58 -83 -87 -83 -142 0
-44 -2 -48 -24 -48 -33 0 -83 44 -91 80 -8 37 2 70 21 70 8 0 14 4 14 10 0 5
-6 8 -12 5 -71 -23 -142 -34 -154 -24 -23 19 -16 26 32 38 34 9 55 9 80 1 30
-10 37 -9 61 11 l28 22 -73 -7 c-40 -4 -85 -12 -100 -17 -21 -7 -36 -5 -67 11
-41 21 -75 26 -75 11 0 -14 23 -29 49 -33 17 -2 36 -20 60 -55 30 -45 36 -50
46 -36 10 14 13 12 19 -13 3 -16 23 -42 44 -58 l37 -30 -32 35 c-34 36 -60 95
-48 107 3 4 11 -2 17 -13 6 -11 43 -53 84 -92 40 -40 70 -73 68 -73 -3 0 -23
9 -44 20 -22 11 -40 18 -40 15 0 -12 80 -44 96 -38 11 4 15 3 11 -4 -4 -7 0
-10 10 -8 15 2 18 11 15 64 -2 33 -1 61 1 61 10 0 47 -68 47 -87 0 -24 -58
-82 -85 -84 -39 -4 -52 1 -62 24 -6 13 -39 48 -74 78 -53 46 -60 49 -40 21 13
-19 30 -36 37 -39 7 -3 23 -21 35 -41 33 -56 46 -62 123 -62 l71 1 24 48 c21
43 22 53 11 85 -17 52 -7 70 32 62 l31 -6 -26 20 c-14 12 -39 27 -54 35 -52
28 2 15 65 -15 59 -28 62 -31 56 -57 -14 -53 -35 -94 -70 -132 -54 -60 -22
-59 40 1 72 70 85 113 57 196 -11 33 -43 106 -71 162 -30 62 -50 117 -50 137
0 41 -20 73 -68 109 l-37 28 37 -42z"/>
<path d="M8450 3586 c0 -13 28 -50 74 -97 56 -57 76 -85 81 -112 4 -20 10 -35
14 -33 12 8 -7 -109 -28 -168 -12 -33 -32 -79 -46 -103 -27 -45 -87 -93 -117
-93 -19 0 -24 -15 -8 -25 6 -3 10 -11 10 -17 0 -6 -3 -8 -7 -5 -3 4 -15 -1
-25 -10 -16 -14 -23 -15 -38 -5 -11 7 -27 12 -35 12 -9 0 -18 7 -21 15 -5 12
-10 13 -20 4 -10 -8 -25 -7 -61 5 -25 9 -62 16 -80 16 -35 0 -166 51 -193 75
-8 7 -28 17 -43 21 -16 3 -45 23 -65 44 -21 20 -46 42 -57 48 -11 6 -15 12 -9
12 6 0 41 -20 78 -45 74 -49 175 -100 221 -110 27 -6 22 1 -48 70 -56 56 -86
95 -106 140 -28 62 -69 105 -101 105 -9 0 -24 15 -33 33 l-17 32 5 -30 c18
-100 18 -103 -9 -149 -33 -56 -33 -80 0 -103 14 -10 40 -30 57 -44 50 -40 154
-85 249 -108 101 -24 158 -46 158 -60 0 -7 24 -8 65 -4 71 6 100 -6 92 -39 -8
-28 12 -21 24 9 5 15 19 33 29 40 11 8 20 24 20 37 0 15 12 31 37 47 47 30 78
77 100 148 18 62 42 96 50 73 3 -8 18 -28 33 -45 48 -56 53 -73 45 -161 -4
-46 -15 -96 -26 -118 -27 -53 -24 -66 10 -34 19 18 27 34 24 47 -3 11 2 44 12
75 16 50 16 60 2 122 -9 37 -19 75 -23 85 -6 17 -5 18 14 6 24 -15 59 -1 80
31 10 16 8 26 -13 55 -13 20 -32 62 -41 93 l-18 57 -6 -45 c-3 -25 -10 -53
-16 -63 -10 -17 -13 -17 -42 8 -18 15 -50 58 -72 95 -22 38 -55 80 -72 94 -38
30 -32 43 13 27 37 -13 126 -14 184 -2 l40 9 -55 1 c-30 0 -103 14 -162 30
l-108 29 0 -22z"/>
<path d="M8770 3591 c0 -11 24 -21 58 -22 23 -1 22 -3 -8 -9 -25 -5 -9 -8 58
-9 68 -1 93 2 90 11 -5 14 -63 36 -97 37 l-23 1 23 -20 24 -20 -35 14 c-53 20
-90 27 -90 17z"/>
<path d="M9120 3555 c-5 -14 -25 -32 -42 -40 -29 -12 -31 -20 -5 -16 5 1 20
-8 34 -19 14 -11 30 -17 35 -14 5 3 18 -2 29 -12 19 -17 20 -17 13 1 -4 10 9
1 30 -21 21 -21 34 -33 30 -25 -4 7 17 -5 46 -28 55 -44 83 -55 121 -49 22 4
17 11 -52 80 -63 64 -202 168 -223 168 -4 0 -11 -11 -16 -25z m91 -42 c13 -16
12 -17 -3 -4 -10 7 -18 15 -18 17 0 8 8 3 21 -13z"/>
<path d="M8034 3386 c-18 -8 -35 -19 -39 -26 -5 -9 -1 -9 16 1 13 7 44 18 69
25 39 10 41 12 15 13 -16 0 -44 -6 -61 -13z"/>
<path d="M7074 3281 c3 -4 -35 -14 -84 -20 -50 -7 -90 -16 -90 -21 0 -5 -19
-11 -42 -15 -61 -10 -69 -19 -23 -25 57 -7 111 0 94 12 -15 10 129 4 166 -7
11 -3 2 3 -20 14 -35 17 -37 20 -15 20 14 1 78 -26 142 -58 64 -33 120 -56
124 -53 4 4 4 2 0 -5 -3 -6 -2 -14 4 -18 5 -3 10 -1 10 4 0 6 7 11 16 11 25 0
6 18 -34 31 -92 30 -142 51 -137 60 4 5 -2 6 -11 2 -13 -5 -15 -3 -9 7 6 10 4
12 -8 7 -10 -3 -17 -3 -17 2 0 4 -10 13 -22 20 -19 9 -13 11 40 8 63 -3 64 -3
40 15 -24 18 -135 27 -124 9z"/>
<path d="M2257 3237 c-3 -8 -1 -20 4 -28 6 -10 9 -7 9 14 0 29 -5 35 -13 14z"/>
<path d="M2220 3220 c0 -5 4 -10 9 -10 5 0 8 -8 7 -17 0 -10 5 -17 13 -15 7 1
18 -2 25 -7 8 -7 12 -4 13 10 1 14 -3 19 -13 15 -8 -3 -20 3 -26 14 -14 21
-28 26 -28 10z"/>
<path d="M2750 3148 c-33 -17 -34 -18 -9 -18 15 0 32 7 39 15 19 22 10 23 -30
3z"/>
<path d="M6945 3130 c33 -11 90 -21 126 -22 37 -2 65 -6 63 -9 -2 -3 22 -12
54 -19 49 -11 98 -27 165 -55 34 -14 17 21 -21 43 -37 21 -174 63 -242 75 -35
7 -35 7 -10 -9 20 -12 21 -14 5 -9 -25 6 -163 24 -185 24 -8 0 12 -9 45 -19z"/>
<path d="M2097 3022 c-40 -38 -100 -83 -135 -102 -90 -48 -114 -106 -76 -186
18 -39 21 -40 51 -19 60 42 232 126 268 130 l40 5 -40 -13 c-58 -20 -143 -64
-177 -92 -16 -14 -38 -25 -49 -25 -27 0 -79 -84 -79 -127 l0 -33 70 51 c52 38
80 52 112 55 l43 4 -42 -13 c-23 -6 -55 -24 -70 -38 -15 -15 -41 -35 -58 -45
-16 -10 -40 -26 -51 -36 -21 -19 -21 -19 -27 21 -3 22 -1 56 3 76 10 45 -8 47
-71 7 -55 -35 -95 -82 -124 -145 -29 -61 -27 -186 3 -226 19 -26 177 -118 166
-97 -3 6 4 -1 16 -17 12 -15 26 -24 31 -21 5 3 8 0 7 -8 -2 -7 2 -12 8 -11 7
1 23 -23 37 -55 32 -73 55 -93 114 -99 26 -2 57 -8 68 -13 11 -5 33 -11 50
-12 42 -4 46 -33 4 -42 -77 -15 -121 -8 -243 39 l-69 26 63 -68 c147 -157 194
-167 373 -77 62 31 157 81 211 112 78 44 109 56 144 56 32 1 48 -4 55 -16 10
-14 5 -25 -28 -58 -26 -27 -34 -40 -23 -40 25 0 76 66 83 107 15 90 36 132 94
190 32 32 63 68 70 80 18 35 12 113 -15 188 -49 137 -48 132 -35 163 7 16 24
35 38 41 14 6 23 14 20 18 -4 3 5 19 18 35 34 40 34 106 -1 175 -33 68 -148
177 -178 169 -11 -3 -47 -12 -78 -21 -51 -14 -63 -14 -123 0 -36 8 -79 15 -94
15 -55 0 -111 -67 -111 -133 0 -51 28 -123 53 -135 12 -6 16 -11 9 -11 -7 -1
-30 8 -52 19 -22 11 -44 20 -51 20 -6 0 -24 11 -41 25 -35 30 -16 33 30 5 18
-11 35 -20 37 -20 8 0 6 36 -2 43 -9 9 -17 71 -18 130 0 43 4 52 35 80 20 18
26 28 15 23 -42 -17 -56 -18 -101 -2 -82 28 -97 23 -177 -52z m466 -122 c14
-11 29 -29 32 -40 5 -15 12 -18 35 -13 40 8 53 -24 34 -87 -8 -25 -14 -66 -14
-91 0 -33 -7 -57 -25 -83 -14 -20 -25 -41 -25 -45 0 -5 -12 -30 -27 -57 l-26
-49 24 21 c13 11 60 53 105 92 44 40 83 72 87 72 3 0 -46 -52 -109 -115 -64
-63 -119 -115 -124 -115 -6 0 -32 -28 -59 -62 -27 -35 -64 -72 -83 -82 l-33
-20 28 33 c15 19 26 35 24 37 -5 6 -115 -45 -122 -56 -8 -13 -133 -6 -147 8
-9 9 -6 10 13 5 50 -13 102 -4 189 33 50 21 90 42 90 46 0 11 -2 11 -51 -12
-53 -24 -98 -25 -125 -5 -16 13 -16 14 -1 9 9 -3 17 -1 17 4 0 6 22 26 49 44
26 18 62 49 80 70 l31 36 -49 51 c-52 53 -30 51 27 -3 27 -26 34 -28 42 -16 5
8 10 21 10 29 0 8 3 12 6 8 24 -24 -77 -151 -148 -188 -40 -20 -51 -49 -20
-49 29 0 113 31 107 40 -3 4 4 19 16 31 l20 24 -17 -27 c-30 -50 6 -32 71 35
74 76 130 195 139 297 4 43 3 58 -3 45 -22 -51 -68 -56 -113 -12 -19 18 -68
141 -68 170 0 17 88 6 113 -13z m-313 -109 c-36 -11 -119 -56 -160 -87 -33
-25 -33 -24 4 10 45 41 130 86 160 85 18 -1 17 -2 -4 -8z m239 -56 c36 -18 81
-71 81 -93 -1 -14 -3 -13 -12 3 -19 35 -62 77 -93 91 -16 7 -24 13 -17 14 7 0
26 -7 41 -15z m-109 -26 c0 -6 9 -9 20 -6 13 3 18 1 13 -6 -4 -7 0 -8 11 -4 9
4 15 3 12 -1 -2 -4 9 -27 25 -51 16 -24 29 -49 29 -55 -1 -6 -10 6 -20 26 -26
48 -72 80 -140 94 l-55 12 53 1 c32 1 52 -3 52 -10z m-110 -3 c0 -2 -11 -6
-25 -8 -13 -3 -22 -1 -19 3 5 9 44 13 44 5z m-113 -42 c-3 -3 -12 -4 -19 -1
-8 3 -5 6 6 6 11 1 17 -2 13 -5z m238 -28 c36 -11 31 -12 -58 -8 -65 3 -102 1
-110 -7 -6 -6 -29 -11 -52 -11 -42 0 -102 -32 -138 -74 l-18 -21 10 21 c14 29
67 73 94 79 12 2 38 6 57 9 19 2 51 9 70 14 48 13 97 13 145 -2z m135 -86
c-11 -22 -23 -40 -25 -40 -3 0 4 18 15 40 11 22 23 40 25 40 3 0 -4 -18 -15
-40z m-377 -4 c-32 -7 -64 -22 -85 -41 l-33 -30 30 34 c36 39 58 50 105 49 31
0 29 -2 -17 -12z m344 -8 c-3 -8 -6 -5 -6 6 -1 11 2 17 5 13 3 -3 4 -12 1 -19z
m-216 -14 c26 -13 87 -84 72 -84 -11 0 -35 16 -32 21 5 8 -16 35 -41 52 -13 9
-37 17 -53 17 -17 0 -26 4 -22 10 7 11 34 6 76 -16z m-101 -7 c-27 -21 -50
-60 -50 -85 0 -24 0 -24 28 -7 l27 18 -22 -24 c-12 -13 -27 -37 -34 -54 -6
-17 -13 -24 -16 -17 -3 7 -2 20 2 30 4 9 8 36 9 59 1 42 35 93 60 93 6 0 4 -6
-4 -13z m-202 -56 c-13 -15 -25 -27 -27 -25 -4 4 39 54 47 54 2 0 -7 -13 -20
-29z m46 -7 c3 -8 2 -12 -4 -9 -6 3 -10 10 -10 16 0 14 7 11 14 -7z m274 9
c-10 -2 -28 -2 -40 0 -13 2 -5 4 17 4 22 1 32 -1 23 -4z m397 -3 c11 -18 -24
-80 -77 -136 -51 -54 -78 -73 -133 -94 -52 -20 -26 29 72 135 91 97 123 120
138 95z m-665 -51 c0 -6 -4 -7 -10 -4 -5 3 -10 11 -10 16 0 6 5 7 10 4 6 -3
10 -11 10 -16z m290 6 c7 -9 10 -18 6 -22 -3 -3 -6 -1 -6 6 0 8 -13 11 -37 9
-28 -2 -41 -9 -50 -28 -9 -18 -13 -20 -13 -7 0 44 73 75 100 42z m-378 -22
c-3 -16 -7 -22 -10 -15 -4 13 4 42 11 42 2 0 2 -12 -1 -27z m-68 -93 c-6 -50
1 -63 76 -152 40 -47 42 -51 15 -34 -49 30 -82 65 -100 106 -14 32 -16 52 -10
117 7 70 9 74 16 43 5 -19 6 -55 3 -80z m122 53 c26 -61 29 -102 10 -109 -27
-10 -36 7 -43 79 -7 77 8 91 33 30z m95 -46 c6 -10 -10 2 -35 26 -26 24 -46
47 -46 52 0 11 69 -54 81 -78z m-116 -97 c40 -42 83 -53 184 -48 63 3 97 10
129 27 24 12 51 20 60 16 13 -5 14 -8 3 -15 -8 -4 -11 -15 -8 -24 4 -9 3 -16
-2 -16 -5 0 -14 -13 -21 -29 -6 -16 -20 -37 -31 -47 -51 -46 13 -32 99 23 29
18 92 65 140 104 81 66 222 151 194 117 -7 -9 -23 -48 -37 -88 -14 -41 -33
-82 -42 -93 -10 -11 -71 -46 -136 -79 -113 -56 -121 -59 -185 -56 -57 2 -72
-2 -99 -22 -29 -20 -35 -22 -62 -10 -17 7 -43 10 -58 7 -32 -6 -68 11 -103 48
l-25 27 23 18 c15 12 18 20 10 23 -7 2 9 7 35 11 27 4 51 5 54 2 9 -9 64 24
58 34 -4 6 -26 10 -50 10 -55 0 -92 14 -129 48 -35 33 -56 81 -55 124 0 26 3
20 13 -25 8 -38 22 -67 41 -87z"/>
<path d="M7350 3081 c0 -5 5 -13 10 -16 6 -3 10 -2 10 4 0 5 -4 13 -10 16 -5
3 -10 2 -10 -4z"/>
<path d="M1936 3004 c-8 -21 -4 -25 14 -14 11 7 12 12 4 20 -8 8 -13 7 -18 -6z"/>
<path d="M8818 3013 c7 -3 16 -2 19 1 4 3 -2 6 -13 5 -11 0 -14 -3 -6 -6z"/>
<path d="M1774 2968 c14 -64 23 -83 42 -83 13 0 18 -6 16 -20 -1 -11 -7 -48
-11 -83 -6 -37 -17 -72 -27 -84 -17 -18 -15 -18 27 4 l45 23 -13 32 c-16 40
-17 74 -2 107 15 31 -2 78 -39 106 -32 26 -43 25 -38 -2z"/>
<path d="M904 2878 l-19 -23 23 19 c21 18 27 26 19 26 -2 0 -12 -10 -23 -22z"/>
<path d="M1680 2880 c0 -5 5 -10 11 -10 5 0 7 5 4 10 -3 6 -8 10 -11 10 -2 0
-4 -4 -4 -10z"/>
<path d="M8188 2883 c6 -2 18 -2 25 0 6 3 1 5 -13 5 -14 0 -19 -2 -12 -5z"/>
<path d="M854 2838 l-19 -23 23 19 c12 11 22 21 22 23 0 8 -8 2 -26 -19z"/>
<path d="M1563 2700 c-2 -17 1 -18 18 -10 10 6 19 13 19 16 0 3 -4 2 -10 -1
-5 -3 -10 -1 -10 4 0 20 -16 11 -17 -9z"/>
<path d="M3125 2641 c-10 -53 -23 -71 -65 -90 -27 -12 -36 -21 -31 -30 15 -23
12 -165 -4 -226 -20 -75 -60 -161 -113 -244 -23 -36 -53 -101 -68 -149 -34
-114 -70 -152 -141 -152 -39 0 -54 5 -71 23 -12 13 -22 29 -22 35 0 6 -19 -2
-42 -18 -24 -16 -81 -40 -128 -54 -72 -21 -102 -24 -200 -22 -214 6 -302 27
-379 92 -58 48 -90 149 -62 193 10 16 -26 81 -46 81 -16 0 -87 95 -106 141
-15 37 -16 130 -2 218 9 53 -4 49 -41 -15 -25 -42 -26 -48 -14 -89 7 -26 17
-42 23 -38 6 3 7 1 3 -6 -4 -6 9 -53 29 -103 34 -82 36 -95 26 -128 -18 -61
-14 -89 19 -121 25 -26 27 -31 12 -35 -85 -27 -89 -49 -28 -168 25 -50 52
-109 60 -131 11 -34 18 -41 47 -46 19 -3 48 -13 66 -22 18 -9 44 -17 58 -17
42 0 24 -23 -36 -46 -30 -11 -74 -30 -99 -41 l-45 -21 40 -17 c52 -22 204 -17
253 9 l33 17 -48 57 c-45 54 -46 55 -10 25 45 -40 73 -47 142 -40 57 6 116 32
240 108 133 81 174 91 360 93 150 1 163 3 203 25 55 32 75 64 82 131 l5 55 19
-28 c24 -35 32 -114 17 -160 -16 -48 -107 -130 -193 -173 -58 -29 -72 -41 -84
-72 -26 -67 -48 -104 -71 -119 -20 -13 -25 -12 -53 9 -29 21 -42 23 -159 23
-139 0 -176 12 -183 57 -3 19 -6 17 -32 -21 -51 -73 -67 -73 -175 3 -71 49
-54 24 21 -32 38 -28 79 -52 91 -52 12 0 42 13 67 30 39 26 46 28 60 15 9 -8
28 -15 42 -15 14 0 33 -9 43 -20 l18 -20 24 22 c23 21 23 21 80 4 32 -9 67
-19 78 -21 11 -2 31 -7 44 -11 19 -6 33 3 85 60 50 53 65 64 75 53 10 -10 12
-9 9 4 -5 24 191 223 249 253 55 28 99 71 138 136 15 25 40 56 56 70 19 16 32
38 36 64 l6 39 -31 -23 c-31 -23 -35 -23 -127 -14 -78 9 -100 15 -121 35 -29
27 -77 119 -63 119 6 0 8 4 5 8 -2 4 3 8 12 9 42 3 133 23 154 34 48 26 126
89 157 127 43 55 81 140 80 182 l0 35 -19 -48 c-21 -55 -62 -112 -91 -127 -43
-24 -79 16 -79 89 0 71 89 211 135 211 14 0 26 43 15 59 -4 7 -48 10 -117 9
l-112 -2 -6 -35z"/>
<path d="M6415 2259 c-113 -65 -290 -90 -390 -54 -22 8 -43 15 -46 15 -3 0
-18 -23 -33 -50 l-27 -50 23 -9 c22 -8 19 -12 -50 -78 -68 -65 -74 -74 -91
-139 -22 -85 -40 -120 -83 -161 -39 -38 -79 -55 -99 -43 -7 5 -23 7 -34 4 -11
-3 -29 1 -39 9 -17 13 -16 14 15 10 l34 -4 -47 27 c-46 26 -62 47 -18 24 12
-6 23 -10 25 -8 2 2 -26 20 -62 40 -71 41 -72 37 -20 -45 28 -43 42 -55 75
-65 46 -14 62 -35 62 -82 0 -36 -12 -61 -52 -110 -15 -19 -28 -41 -28 -48 0
-10 -8 -12 -27 -8 -25 5 -26 4 -7 -5 17 -9 36 -2 113 43 104 60 84 31 178 258
19 47 39 117 44 155 5 39 17 81 27 95 18 24 253 158 280 159 8 1 25 10 39 21
29 22 82 26 152 9 34 -7 47 -7 60 4 9 7 27 18 41 24 14 6 40 23 59 38 l33 28
-24 13 c-29 16 -23 17 -83 -17z"/>
<path d="M6885 2250 c-10 -22 -16 -43 -13 -46 3 -2 13 14 22 37 22 54 15 61
-9 9z"/>
<path d="M7677 2252 c-10 -10 -17 -26 -17 -36 0 -9 -3 -15 -7 -13 -5 3 -9 -9
-9 -26 -1 -18 -5 -45 -9 -62 -7 -29 -7 -29 42 18 44 43 49 52 49 92 1 36 -3
45 -16 45 -9 0 -24 -8 -33 -18z"/>
<path d="M7405 2249 c-11 -17 1 -21 15 -4 8 9 8 15 2 15 -6 0 -14 -5 -17 -11z"/>
<path d="M7457 2242 c-20 -22 -24 -106 -5 -100 7 3 17 21 23 40 15 53 25 57
25 10 0 -23 4 -42 10 -42 9 0 30 62 30 93 0 24 -61 23 -83 -1z"/>
<path d="M7571 2213 c0 -36 3 -43 9 -28 12 28 12 75 0 75 -5 0 -10 -21 -9 -47z"/>
<path d="M7811 2187 c-6 -35 -11 -76 -11 -91 0 -50 -20 -16 -22 37 l-2 52 -3
-49 c-3 -37 2 -60 22 -100 27 -55 64 -109 95 -140 19 -20 19 -19 9 17 -5 20
-14 72 -18 115 -8 76 -8 76 -11 22 -2 -44 -4 -50 -10 -30 -4 14 -9 48 -10 75
l-2 50 -14 -55 -13 -55 3 108 c2 59 3 107 1 107 -2 0 -8 -28 -14 -63z"/>
<path d="M8060 2244 c0 -4 5 -24 12 -46 9 -30 24 -47 71 -79 l59 -41 -18 32
c-11 18 -37 50 -59 73 -28 28 -33 36 -16 28 15 -8 21 -9 17 -2 -4 7 1 11 12
11 26 0 78 -59 127 -143 l40 -69 3 44 c2 23 7 47 13 53 5 5 9 20 9 33 0 24 1
24 26 7 24 -16 25 -16 15 3 -15 27 -41 47 -65 48 -12 1 -34 4 -51 8 -16 4 -59
14 -95 22 -36 8 -73 17 -82 20 -10 3 -18 2 -18 -2z"/>
<path d="M6912 2215 c-6 -13 -7 -27 -3 -30 5 -2 12 7 15 21 9 35 2 40 -12 9z"/>
<path d="M7414 2209 c-6 -8 -14 -29 -18 -47 -8 -45 15 -38 27 7 10 40 5 59 -9
40z"/>
<path d="M6955 2179 c-4 -6 -5 -12 -2 -15 2 -3 7 2 10 11 7 17 1 20 -8 4z"/>
<path d="M7117 2117 l-69 -22 24 -21 23 -22 45 32 c25 17 46 37 48 44 1 6 1
12 0 11 -2 0 -34 -10 -71 -22z"/>
<path d="M7315 2129 c-64 -15 -66 -29 -4 -30 l54 -1 -30 -14 c-29 -14 -29 -14
20 -8 48 6 87 24 52 24 -9 0 -17 5 -17 10 0 6 -7 10 -16 10 -8 0 -12 5 -9 10
7 11 4 11 -50 -1z"/>
<path d="M5705 2059 c30 -39 55 -75 55 -81 0 -5 3 -7 8 -5 4 3 8 -5 8 -18 1
-15 -5 -25 -17 -28 -14 -4 -25 7 -45 40 -14 24 -27 43 -29 41 -1 -2 2 -26 8
-53 9 -47 8 -54 -15 -90 -15 -22 -29 -51 -33 -65 -13 -47 131 107 170 182 l36
67 -39 26 c-21 14 -52 27 -68 29 -16 3 -42 9 -57 15 -16 6 -30 11 -33 11 -2 0
21 -32 51 -71z"/>
<path d="M8090 2115 c0 -15 18 -40 24 -34 3 3 -1 14 -9 25 -8 10 -14 15 -15 9z"/>
<path d="M7375 2060 c-16 -7 -17 -9 -3 -9 9 -1 20 4 23 9 7 11 7 11 -20 0z"/>
<path d="M6650 2032 c0 -4 6 -17 14 -28 15 -19 15 -19 38 4 16 16 18 21 6 17
-9 -4 -26 -2 -37 5 -12 6 -21 7 -21 2z"/>
<path d="M5461 2026 c10 -9 69 -36 69 -32 0 6 -55 36 -66 36 -4 0 -5 -2 -3 -4z"/>
<path d="M7001 2013 c18 -25 41 -43 53 -43 5 0 -3 14 -19 30 -31 32 -56 41
-34 13z"/>
<path d="M7105 2020 c3 -5 8 -10 11 -10 2 0 4 5 4 10 0 6 -5 10 -11 10 -5 0
-7 -4 -4 -10z"/>
<path d="M6245 1978 c-27 -11 -52 -21 -53 -23 -4 -4 53 -19 104 -28 l31 -6
-12 34 c-6 19 -13 36 -16 39 -2 2 -26 -5 -54 -16z"/>
<path d="M7356 1977 c3 -10 9 -15 12 -12 3 3 0 11 -7 18 -10 9 -11 8 -5 -6z"/>
<path d="M8113 1935 c0 -22 2 -30 4 -17 2 12 2 30 0 40 -3 9 -5 -1 -4 -23z"/>
<path d="M5650 1936 c0 -2 7 -9 15 -16 13 -11 14 -10 9 4 -5 14 -24 23 -24 12z"/>
<path d="M6121 1899 c-54 -51 -67 -154 -30 -240 12 -27 24 -47 27 -44 3 3 13
-13 23 -35 27 -60 50 -54 133 38 80 90 106 136 96 172 -6 24 -7 23 -14 -10
-13 -59 -95 -179 -123 -180 -22 0 -79 126 -60 133 6 2 3 14 -8 31 -18 26 -17
28 2 54 24 32 72 44 104 26 23 -13 23 -13 -8 -8 -32 6 -33 5 -33 -27 0 -26 6
-37 22 -44 18 -8 28 -5 49 15 41 39 63 87 34 76 -8 -3 -15 -1 -15 4 0 6 5 10
11 10 5 0 7 5 4 10 -3 6 -32 10 -64 10 -99 0 -139 -50 -149 -184 -4 -67 -7
-76 -14 -51 -4 17 -6 72 -4 123 3 80 7 97 27 118 28 30 21 32 -10 3z"/>
<path d="M6375 1889 c11 -13 21 -26 22 -28 2 -2 3 3 3 12 0 9 -10 22 -22 28
l-23 12 20 -24z"/>
<path d="M6467 1880 c-3 -11 -1 -20 4 -20 5 0 16 -14 24 -31 21 -40 6 -86 -43
-137 -43 -43 -20 -27 61 41 31 27 57 57 57 67 0 24 -36 67 -70 85 -26 13 -28
13 -33 -5z"/>
<path d="M6711 1895 c0 -5 9 -28 20 -50 10 -22 16 -29 13 -15 -7 28 -33 80
-33 65z"/>
<path d="M6831 1875 c0 -5 11 -32 24 -60 23 -49 23 -49 24 -18 1 21 -8 42 -24
60 -13 15 -24 24 -24 18z"/>
<path d="M8123 1825 c0 -33 2 -45 4 -27 2 18 2 45 0 60 -2 15 -4 0 -4 -33z"/>
<path d="M6174 1815 c-15 -23 -15 -27 4 -57 l21 -32 10 27 c27 70 1 116 -35
62z"/>
<path d="M7407 1819 c7 -7 15 -10 18 -7 3 3 -2 9 -12 12 -14 6 -15 5 -6 -5z"/>
<path d="M7072 1800 c0 -14 2 -19 5 -12 2 6 2 18 0 25 -3 6 -5 1 -5 -13z"/>
<path d="M6220 1750 c0 -5 4 -10 9 -10 6 0 13 5 16 10 3 6 -1 10 -9 10 -9 0
-16 -4 -16 -10z"/>
<path d="M6885 1735 c4 -16 13 -37 21 -45 20 -20 17 -1 -7 40 l-20 35 6 -30z"/>
<path d="M7360 1756 c0 -2 8 -10 18 -17 15 -13 16 -12 3 4 -13 16 -21 21 -21
13z"/>
<path d="M6731 1689 c-12 -52 -12 -70 -1 -108 7 -25 15 -55 17 -66 9 -39 -85
-174 -137 -197 -9 -4 -1 -7 21 -7 43 -1 132 42 153 74 15 22 14 24 -5 30 -12
4 -18 13 -15 20 31 82 38 196 14 240 -9 17 -20 40 -25 53 -7 20 -10 15 -22
-39z"/>
<path d="M6592 1645 c0 -38 3 -90 7 -115 7 -39 9 -33 9 40 0 47 -4 99 -8 115
-6 22 -8 12 -8 -40z"/>
<path d="M7383 1675 c0 -8 4 -12 9 -9 5 3 6 10 3 15 -9 13 -12 11 -12 -6z"/>
<path d="M5530 1676 c0 -3 9 -10 20 -16 11 -6 20 -8 20 -6 0 3 -9 10 -20 16
-11 6 -20 8 -20 6z"/>
<path d="M3222 1621 c-46 -47 -35 -74 49 -117 385 -194 899 -325 1383 -353
183 -11 174 -7 233 -115 21 -38 49 -77 63 -87 31 -23 90 -36 90 -20 0 6 -5 11
-12 11 -24 0 -76 51 -127 124 l-52 76 49 0 c61 0 74 14 76 79 l1 48 -210 6
c-292 8 -508 38 -790 108 -212 54 -478 150 -644 234 -39 19 -73 35 -75 35 -2
0 -18 -13 -34 -29z"/>
<path d="M6345 1628 c-73 -30 -77 -32 -94 -58 -9 -13 -11 -22 -6 -19 63 36
155 92 155 95 0 2 -1 4 -2 3 -2 -1 -25 -10 -53 -21z"/>
<path d="M7388 1642 c-10 -2 -18 -8 -18 -13 0 -6 5 -7 12 -3 8 5 9 2 5 -10 -4
-9 -3 -15 2 -11 6 3 14 -2 19 -11 11 -19 22 -20 34 -2 8 10 11 10 15 0 2 -6 9
-9 14 -6 6 3 2 12 -8 19 -14 10 -21 11 -32 2 -12 -10 -14 -9 -9 3 7 19 -12 37
-34 32z"/>
<path d="M6005 1580 c11 -14 31 -38 45 -53 25 -28 25 -29 5 -44 -19 -15 -19
-15 5 -8 14 4 29 11 33 15 14 12 -2 48 -24 55 -10 4 -34 18 -52 33 -32 26 -32
26 -12 2z"/>
<path d="M7379 1573 c-13 -16 -12 -17 4 -4 16 13 21 21 13 21 -2 0 -10 -8 -17
-17z"/>
<path d="M7418 1563 c7 -3 16 -2 19 1 4 3 -2 6 -13 5 -11 0 -14 -3 -6 -6z"/>
<path d="M6982 1519 c-38 -34 -52 -37 -52 -10 0 15 -7 12 -36 -17 -20 -20 -43
-48 -51 -62 -12 -19 -8 -18 14 7 25 28 32 31 45 20 9 -6 18 -19 21 -27 4 -11
6 -10 6 4 1 15 7 17 31 14 27 -4 31 -1 46 38 22 58 15 68 -24 33z"/>
<path d="M7380 1540 c-13 -8 -12 -10 3 -10 9 0 17 5 17 10 0 12 -1 12 -20 0z"/>
<path d="M1669 1514 c-12 -14 -11 -16 5 -13 11 2 21 10 24 17 5 17 -13 15 -29
-4z"/>
<path d="M7457 1503 c-4 -3 -7 -11 -7 -17 0 -6 5 -5 12 2 6 6 9 14 7 17 -3 3
-9 2 -12 -2z"/>
<path d="M7530 1489 c0 -5 5 -7 10 -4 6 3 10 8 10 11 0 2 -4 4 -10 4 -5 0 -10
-5 -10 -11z"/>
<path d="M5870 1452 c0 -40 -35 -75 -67 -67 -14 3 -39 8 -57 11 -26 4 -27 3
-10 -5 19 -8 49 -33 93 -76 14 -13 37 -1 104 55 7 6 -50 110 -59 110 -2 0 -4
-13 -4 -28z"/>
<path d="M6031 1433 c35 -47 75 -83 91 -83 13 0 1 15 -37 50 -56 51 -78 64
-54 33z"/>
<path d="M6580 1392 c0 -6 -15 -27 -34 -47 l-34 -36 31 3 c27 3 32 8 39 42 5
21 6 41 3 44 -3 3 -5 0 -5 -6z"/>
<path d="M2800 1386 c0 -2 8 -10 18 -17 15 -13 16 -12 3 4 -13 16 -21 21 -21
13z"/>
<path d="M5431 1386 c12 -10 59 -15 59 -6 0 5 -14 10 -32 10 -17 0 -29 -2 -27
-4z"/>
<path d="M2870 1360 c-10 -14 -16 -16 -22 -7 -6 9 -8 9 -8 0 0 -7 -7 -13 -15
-13 -8 0 -19 -10 -25 -22 -10 -21 -10 -21 3 -5 17 21 31 22 23 2 -3 -8 -1 -15
4 -15 6 0 10 6 10 13 0 8 4 7 10 -3 7 -11 10 -11 10 -2 0 7 10 17 23 22 12 5
16 9 9 9 -9 1 -11 8 -7 21 8 25 3 25 -15 0z"/>
<path d="M3305 1361 c7 -12 181 -80 307 -120 165 -53 158 -43 -12 17 -91 32
-194 71 -229 85 -72 30 -75 31 -66 18z"/>
<path d="M5210 1358 c0 -5 -4 -7 -9 -4 -5 4 -7 -3 -4 -15 4 -13 8 -17 13 -9 4
6 10 11 14 11 20 -3 25 0 20 12 -5 15 -34 19 -34 5z"/>
<path d="M5470 1334 c57 -18 65 -17 50 1 -8 9 -29 15 -54 14 l-41 0 45 -15z"/>
<path d="M3286 1333 c-12 -12 -6 -22 17 -25 15 -2 23 -11 25 -29 3 -24 15 -31
124 -74 310 -120 684 -214 966 -241 69 -6 75 -5 100 18 15 14 36 30 47 36 19
10 19 11 -5 15 -14 3 -88 12 -165 21 -172 20 -436 72 -450 89 -11 13 -165 61
-172 53 -3 -2 28 -14 69 -26 100 -29 107 -32 86 -37 -29 -7 -397 110 -584 185
-29 12 -55 18 -58 15z"/>
<path d="M5965 1320 c-3 -6 5 -10 19 -10 24 0 25 -2 15 -27 l-10 -28 25 25 26
24 -31 13 c-37 16 -36 16 -44 3z"/>
<path d="M6180 1256 c0 -2 8 -10 18 -17 15 -13 16 -12 3 4 -13 16 -21 21 -21
13z"/>
<path d="M6415 1224 c-74 -16 -149 -18 -177 -3 -12 7 -18 7 -14 1 22 -36 197
-61 291 -42 33 7 83 16 110 20 28 5 61 13 75 19 20 8 15 9 -30 5 -30 -3 -68
-7 -85 -9 -16 -3 -43 2 -59 10 -33 17 -32 17 -111 -1z"/>
<path d="M5841 1182 l-1 -54 -36 21 c-36 22 -36 20 3 -38 23 -34 29 -75 15
-98 -22 -35 -93 -34 -149 2 -25 17 -43 13 -43 -10 0 -8 11 -17 25 -20 14 -3
36 -7 50 -10 13 -3 32 -14 42 -24 10 -10 38 -21 62 -25 24 -4 57 -16 73 -27
l29 -21 -6 44 c-14 101 -27 150 -42 155 -9 4 -13 14 -9 27 2 11 1 46 -3 76
l-9 55 -1 -53z"/>
<path d="M6889 1214 c-19 -24 -65 -44 -97 -44 -18 0 -52 -15 -81 -35 -29 -19
-75 -41 -104 -49 -29 -9 -74 -22 -102 -30 l-50 -15 45 5 c25 3 96 19 157 35
79 20 125 27 152 23 38 -6 39 -6 34 21 -5 21 2 35 33 66 21 21 35 39 32 39 -3
0 -11 -7 -19 -16z"/>
<path d="M6155 1105 c64 -59 61 -63 -25 -40 -106 29 -131 15 -35 -20 58 -20
102 -45 164 -92 67 -50 70 -39 6 19 -32 29 -52 54 -46 56 6 2 9 7 7 10 -2 4
35 6 82 5 l87 -1 -73 8 c-64 7 -81 14 -150 59 l-77 51 60 -55z"/>
<path d="M7041 1119 c-13 -10 -29 -19 -37 -19 -19 0 -18 -16 1 -24 45 -17 -11
-93 -90 -121 -27 -9 -83 -35 -124 -57 -41 -22 -87 -44 -102 -48 -39 -11 -96 6
-142 42 -25 19 -44 27 -55 23 -14 -6 -13 -8 8 -17 27 -10 60 -37 60 -48 0 -10
-134 -65 -244 -101 l-89 -29 -91 44 c-50 25 -107 47 -126 51 l-35 6 35 -22
c19 -12 45 -32 57 -45 13 -15 28 -21 38 -18 9 4 41 -1 71 -11 67 -21 119 -16
225 21 41 14 100 27 131 29 45 3 87 18 205 73 81 38 173 77 203 87 98 32 123
60 133 152 6 51 0 57 -32 32z"/>
<path d="M5587 1091 c-4 -19 -23 -50 -46 -72 -44 -45 -44 -46 8 -20 54 28 63
42 53 87 l-8 39 -7 -34z"/>
<path d="M4614 1045 c-14 -11 -15 -14 -4 -15 8 0 0 -9 -17 -20 -36 -22 -45
-37 -12 -19 25 13 83 6 136 -16 l36 -15 -47 -41 c-47 -42 -64 -73 -24 -45 12
9 32 16 44 16 13 0 31 11 42 25 17 21 28 25 71 25 50 0 51 0 39 25 -7 17 -20
25 -37 26 -24 2 -24 2 -3 6 42 8 23 25 -25 21 -39 -2 -52 1 -70 20 -27 26 -98
31 -129 7z"/>
<path d="M6938 884 c-37 -25 -87 -69 -111 -97 -40 -47 -121 -167 -113 -167 1
0 32 37 69 83 36 46 96 110 134 142 121 104 123 108 21 39z"/>
<path d="M4251 692 c-11 -8 -11 -10 0 -14 8 -3 -1 -8 -18 -12 -42 -10 -55 -28
-14 -20 21 5 49 -3 100 -26 l70 -32 -49 -25 c-74 -37 -81 -52 -23 -46 36 4 55
12 75 34 15 16 32 29 37 29 5 0 11 6 14 14 6 14 -10 36 -27 36 -5 0 -21 14
-35 31 -20 24 -36 32 -71 35 -25 3 -51 1 -59 -4z"/>
<path d="M4738 646 c-10 -20 -18 -51 -18 -69 0 -18 -4 -48 -10 -66 -15 -53 -4
-49 25 9 21 41 25 63 23 107 l-3 56 -17 -37z"/>
<path d="M5180 659 c0 -6 -5 -7 -12 -3 -6 4 -8 3 -5 -4 4 -5 16 -8 27 -5 24 6
25 9 5 17 -8 3 -15 1 -15 -5z"/>
<path d="M6155 545 c-3 -8 -7 -22 -10 -30 -8 -25 11 -17 23 10 15 32 15 35 2
35 -6 0 -13 -7 -15 -15z"/>
<path d="M4556 355 c-9 -9 -16 -20 -16 -25 0 -4 -9 -10 -21 -13 -12 -3 -18
-10 -14 -17 3 -6 1 -9 -6 -8 -18 4 -43 -66 -35 -99 6 -21 9 -24 17 -12 6 10 9
6 9 -16 0 -16 5 -37 11 -45 8 -12 9 -8 6 15 -5 32 14 76 57 134 17 23 27 30
30 20 13 -44 39 -109 44 -113 4 -2 7 22 6 54 0 57 -14 90 -39 90 -6 0 -11 10
-11 21 1 28 -17 34 -38 14z"/>
</g>
</svg>
